<?xml version="1.0" encoding="utf-8"?>
<!-- Generator: Adobe Illustrator 27.2.0, SVG Export Plug-In . SVG Version: 6.00 Build 0)  -->
<svg version="1.1" id="Layer_1" xmlns="http://www.w3.org/2000/svg" xmlns:xlink="http://www.w3.org/1999/xlink" x="0px" y="0px"
	 viewBox="0 0 805 600" style="enable-background:new 0 0 805 600;" xml:space="preserve">
<style type="text/css">
	.st0{fill:#FFFFFF;}
	.st1{fill:#9E0142;}
	.st2{fill:#E1524A;}
	.st3{fill:#FBA35E;}
	.st4{fill:#FEE89A;}
	.st5{fill:#EBF7A6;}
	.st6{fill:#A0D9A3;}
	.st7{fill:#4BA0B1;}
	.st8{fill:#A89CD2;}
	.st9{fill:none;stroke:#000000;}
	.st10{font-family:'Helvetica';}
	.st11{font-size:10px;}
	.st12{fill:#7B7B7B;}
	.st13{font-family:'Arial-BoldMT';}
	.st14{font-size:12px;}
</style>
<rect id="backgorund" class="st0" width="805" height="600"/>
<g id="viz">
	<g transform="translate(0,0)">
		<g transform="translate(10,20)">
			<g>
				<path class="st1" d="M0,455.2c0,0,26.2-110.4,39.2-139.1C52.3,287.4,65.4,276,78.5,283c13.1,6.9,26.2,68.4,39.2,74.7
					s26.2-26.6,39.2-36.8s26.2-22.4,39.2-24.3s19.6,12.9,39.2,12.9s58.9-27.9,78.5-13.3s26.2,88.4,39.2,101.1s26.2-46,39.2-25.1
					c13.1,20.9,26.2,158.6,39.2,150.6c13.1-8.1,26.2-184.6,39.2-198.9s26.2,112.4,39.2,112.6c13.1,0.2,26.2-96.6,39.2-111.3
					c13.1-14.7,26.2,23.5,39.2,23c13.1-0.5,26.2-31.3,39.2-26s26.2,48.4,39.2,57.8s26.2-22.7,39.2-1.2s26.2,120.1,39.2,130.3
					c13.1,10.2,39.2-69.4,39.2-69.4v2.9c0,0-26.2,78.6-39.2,68s-26.2-110.2-39.2-131.8c-13.1-21.6-26.2,11.5-39.2,2.3
					c-13.1-9.2-26.2-53-39.2-57.3s-26.2,28.7-39.2,31.4s-26.2-30.6-39.2-15.2c-13.1,15.4-26.2,109.7-39.2,107.8
					c-13.1-1.9-26.2-132-39.2-119.1s-26.2,185.6-39.2,196.3c-13.1,10.7-26.2-111.2-39.2-132s-26.2,23.5-39.2,7.4
					c-13.1-16.1-19.6-89-39.2-104.1s-58.9,13.2-78.5,13.3s-26.2-14.8-39.2-12.9s-26.2,14.1-39.2,24.3s-26.2,43.1-39.2,36.8
					S91.6,289.9,78.5,283c-13.1-6.9-26.2,4.5-39.2,33.2C26.2,344.8,0,455.2,0,455.2z"/>
				<path class="st2" d="M0,133.2c0,0,26.2,116,39.2,140.9s26.2-1.2,39.2,8.8c13.1,10,26.2,50.9,39.2,51.4
					c13.1,0.5,26.2-37.4,39.2-48.4s26.2-12.8,39.2-17.9s19.6-13.8,39.2-12.3c19.6,1.5,58.9,16.6,78.5,21.3
					c19.6,4.7,26.2,3.8,39.2,6.7c13.1,2.9,26.2,2.3,39.2,10.8s26.2,38.4,39.2,40.4s26.2-32.6,39.2-28.3s26.2,52.1,39.2,54.2
					c13.1,2.1,26.2-39.7,39.2-41.8s26.2,28.6,39.2,29s26.2-31.5,39.2-26.2s26.2,48.7,39.2,58s26.2-23.9,39.2-2.4
					c13.1,21.5,26.2,121.1,39.2,131.5s39.2-69.4,39.2-69.4l0,0c0,0-26.2,79.5-39.2,69.4c-13.1-10.2-26.2-108.8-39.2-130.3
					s-26.2,10.7-39.2,1.2S641.1,327.3,628,322s-26.2,25.5-39.2,26c-13.1,0.5-26.2-37.7-39.2-23c-13.1,14.7-26.2,111.6-39.2,111.3
					c-13.1-0.2-26.2-127-39.2-112.6s-26.2,190.9-39.2,198.9c-13.1,8.1-26.2-129.7-39.2-150.6c-13.1-20.9-26.2,37.8-39.2,25.1
					s-19.6-86.4-39.2-101.1s-58.9,13.2-78.5,13.3s-26.2-14.8-39.2-12.9s-26.2,14.1-39.2,24.3s-26.2,43.1-39.2,36.8
					S91.6,289.9,78.5,283c-13.1-6.9-26.2,4.5-39.2,33.2C26.2,344.8,0,455.2,0,455.2V133.2z"/>
				<path class="st3" d="M0,107.1c0,0,26.2,114.3,39.2,143.6s26.2,23.2,39.2,32.2c13.1,9.1,26.2,21.7,39.2,22.2
					c13.1,0.5,26.2-13.1,39.2-19.2s26.2-12.8,39.2-17.9s19.6-13.8,39.2-12.3c19.6,1.5,58.9,35.1,78.5,21.3
					c19.6-13.9,26.2-93.1,39.2-104.5c13.1-11.4,26.2,44.6,39.2,36.3s26.2-93.7,39.2-86.4c13.1,7.3,26.2,101.2,39.2,130.3
					s26.2,34.4,39.2,44.6c13.1,10.2,26.2,9.5,39.2,16.8s26.2,27.4,39.2,26.9s26.2-29.9,39.2-30.1c13.1-0.2,26.2,24.5,39.2,29
					s26.2-2.4,39.2-2.1s26.2-2.2,39.2,4.1s39.2,33.7,39.2,33.7v63.8c0,0-26.2,79.7-39.2,69.4S719.6,399,706.5,377.5
					c-13.1-21.5-26.2,11.7-39.2,2.4s-26.2-52.7-39.2-58s-26.2,26.7-39.2,26.2s-26.2-31.2-39.2-29s-26.2,43.9-39.2,41.8
					c-13.1-2.1-26.2-49.9-39.2-54.2S444.8,337,431.8,335s-26.2-31.8-39.2-40.4s-26.2-7.9-39.2-10.8c-13.1-2.9-19.6-2-39.2-6.7
					c-19.6-4.7-58.9-19.8-78.5-21.3c-19.6-1.5-26.2,7.2-39.2,12.3s-26.2,6.8-39.2,17.9s-26.2,48.9-39.2,48.4
					c-13.1-0.5-26.2-41.4-39.2-51.4c-13.1-10-26.2,16.1-39.2-8.8S0,133.2,0,133.2V107.1z"/>
				<path class="st4" d="M0,107.1c0,0,26.2,114.3,39.2,143.6s26.2,32.5,39.2,32.2c13.1-0.3,26.2-34.3,39.2-33.8
					c13.1,0.5,26.2,33.5,39.2,36.6s26.2-12.5,39.2-17.7s19.6-15.1,39.2-13.7c19.6,1.5,58.9,36.2,78.5,22.6s26.2-93.1,39.2-104.5
					c13.1-11.3,26.2,44.7,39.2,36.4s26.2-93.7,39.2-86.4c13.1,7.3,26.2,101.2,39.2,130.3c13.1,29.1,26.2,34.2,39.2,44.5
					c13.1,10.2,26.2,9.6,39.2,16.9s26.2,27.2,39.2,26.7s26.2-29.7,39.2-29.9s26.2,24.5,39.2,29s26.2-2.4,39.2-2.1s26.2,4.8,39.2,4.1
					s39.2-8.3,39.2-8.3v42c0,0-26.2-27.4-39.2-33.7s-26.2-3.8-39.2-4.1s-26.2,6.6-39.2,2.1s-26.2-29.2-39.2-29
					c-13.1,0.2-26.2,29.5-39.2,30.1s-26.2-19.6-39.2-26.9s-26.2-6.5-39.2-16.8c-13.1-10.2-26.2-15.4-39.2-44.6s-26.2-123-39.2-130.3
					c-13.1-7.3-26.2,78-39.2,86.4s-26.2-47.6-39.2-36.3c-13.1,11.4-19.6,90.6-39.2,104.5c-19.6,13.9-58.9-19.8-78.5-21.3
					c-19.6-1.5-26.2,7.2-39.2,12.3s-26.2,11.7-39.2,17.9s-26.2,19.7-39.2,19.2c-13.1-0.5-26.2-13.1-39.2-22.2
					c-13.1-9.1-26.2-2.9-39.2-32.2S0,107.1,0,107.1z"/>
				<path class="st5" d="M0,107.1c0,0,26.2,114.3,39.2,143.6S65.4,291,78.5,283c13.1-8,26.2-73.2,39.2-80.5
					c13.1-7.3,26.2,25.7,39.2,36.6c13.1,10.9,26.2,26.4,39.2,28.9s19.6-15.1,39.2-13.7c19.6,1.5,58.9,36.2,78.5,22.6
					s26.2-93.1,39.2-104.5c13.1-11.3,26.2,55.6,39.2,36.4s26.2-159,39.2-151.7s26.2,177.4,39.2,195.7s26.2-96.4,39.2-86.2
					c13.1,10.2,26.2,129.4,39.2,147.5s26.2-38.1,39.2-38.6s26.2,24.7,39.2,35.5c13.1,10.7,26.2,35.4,39.2,29
					c13.1-6.4,26.2-56.9,39.2-67.4c13.1-10.6,26.2-6.1,39.2,4.1s39.2,57,39.2,57l0,0c0,0-26.2,7.6-39.2,8.3s-26.2-3.8-39.2-4.1
					s-26.2,6.6-39.2,2.1s-26.2-29.1-39.2-29s-26.2,29.3-39.2,29.9s-26.2-19.5-39.2-26.7s-26.2-6.7-39.2-16.9
					c-13.1-10.2-26.2-15.3-39.2-44.5c-13.1-29.1-26.2-123-39.2-130.3c-13.1-7.3-26.2,78.1-39.2,86.4s-26.2-47.7-39.2-36.4
					c-13.1,11.3-19.6,90.8-39.2,104.5s-58.9-21.1-78.5-22.6c-19.6-1.5-26.2,8.4-39.2,13.7S170.1,289,157,285.8s-26.2-36.2-39.2-36.6
					c-13.1-0.5-26.2,33.5-39.2,33.8c-13.1,0.3-26.2-2.9-39.2-32.2S0,107.1,0,107.1z"/>
				<path class="st6" d="M0,107.1c0,0,26.2,109.7,39.2,138s26.2,39,39.2,31.9c13.1-7.1,26.2-68.4,39.2-74.7
					c13.1-6.3,26.2,25.9,39.2,36.8c13.1,10.9,26.2,26.3,39.2,28.7s19.6-13.1,39.2-13.8c19.6-0.7,58.9,24.8,78.5,9.7
					c19.6-15.1,26.2-85,39.2-100.3s26.2,26.4,39.2,8.1s26.2-131.2,39.2-117.7s26.2,182.1,39.2,198.5s26.2-109.7,39.2-100.4
					c13.1,9.3,26.2,136.4,39.2,156.4c13.1,20,26.2-35.9,39.2-36.3s26.2,24.6,39.2,33.8c13.1,9.1,26.2,29.1,39.2,21.1
					c13.1-8,26.2-58.2,39.2-68.8c13.1-10.6,26.2-6.4,39.2,5s39.2,63.4,39.2,63.4v7.4c0,0-26.2-46.8-39.2-57s-26.2-14.7-39.2-4.1
					c-13.1,10.6-26.2,61-39.2,67.4c-13.1,6.4-26.2-18.2-39.2-29c-13.1-10.7-26.2-36-39.2-35.5s-26.2,56.8-39.2,38.6
					s-26.2-137.3-39.2-147.5c-13.1-10.2-26.2,104.4-39.2,86.2S444.8,64.5,431.8,57.2s-26.2,132.5-39.2,151.7s-26.2-47.7-39.2-36.4
					c-13.1,11.3-19.6,90.8-39.2,104.5s-58.9-21.1-78.5-22.6c-19.6-1.5-26.2,16.2-39.2,13.7s-26.2-18-39.2-28.9
					c-13.1-10.9-26.2-44-39.2-36.6c-13.1,7.3-26.2,72.4-39.2,80.5c-13.1,8-26.2-2.9-39.2-32.2S0,107.1,0,107.1z"/>
				<path class="st7" d="M0,107.1c0,0,26.2,109.7,39.2,138s26.2,39,39.2,31.9c13.1-7.1,26.2-68.4,39.2-74.7
					c13.1-6.3,26.2,26,39.2,36.8c13.1,10.9,26.2,26.1,39.2,28.4c13.1,2.3,19.6-14,39.2-14.6c19.6-0.6,58.9,25.8,78.5,10.8
					c19.6-15,26.2-85,39.2-100.6s26.2,25.8,39.2,6.7s26.2-134.1,39.2-121s26.2,182.7,39.2,199.5s26.2-108.2,39.2-98.5
					c13.1,9.7,26.2,138.8,39.2,156.7c13.1,17.9,26.2-45.6,39.2-49.3s26.2,31.9,39.2,26.7c13.1-5.2,26.2-49.5,39.2-57.7
					s26.2,4,39.2,8.8c13.1,4.9,26.2,7.9,39.2,20.3s39.2,54.2,39.2,54.2v16.7c0,0-26.2-52-39.2-63.4s-26.2-15.7-39.2-5
					c-13.1,10.6-26.2,60.9-39.2,68.8c-13.1,8-26.2-12-39.2-21.1c-13.1-9.1-26.2-34.2-39.2-33.8s-26.2,56.3-39.2,36.3
					c-13.1-20-26.2-147.1-39.2-156.4c-13.1-9.3-26.2,116.8-39.2,100.4s-26.2-185-39.2-198.5s-26.2,99.5-39.2,117.7
					s-26.2-23.5-39.2-8.1s-19.6,85.2-39.2,100.3c-19.6,15.1-58.9-10.4-78.5-9.7c-19.6,0.7-26.2,16.3-39.2,13.8s-26.2-17.8-39.2-28.7
					c-13.1-10.9-26.2-43.2-39.2-36.8c-13.1,6.3-26.2,67.6-39.2,74.7c-13.1,7.1-26.2-3.6-39.2-31.9S0,107.1,0,107.1z"/>
				<path class="st8" d="M0,104.8c0,0,26.2,110.4,39.2,139.1S65.4,284,78.5,277c13.1-6.9,26.2-68.4,39.2-74.7
					c13.1-6.3,26.2,26.6,39.2,36.8s26.2,22.4,39.2,24.3s19.6-12.9,39.2-12.9s58.9,28.4,78.5,13.3s26.2-88,39.2-104.1
					s26.2,28.2,39.2,7.4s26.2-142.7,39.2-132s26.2,183.5,39.2,196.3s26.2-117.3,39.2-119.1c13.1-1.9,26.2,92.4,39.2,107.8
					s26.2-17.9,39.2-15.2c13.1,2.7,26.2,35.7,39.2,31.4s26.2-48.1,39.2-57.3c13.1-9.2,26.2,23.9,39.2,2.3s26.2-121.2,39.2-131.8
					s39.2,68,39.2,68v192.2c0,0-26.2-41.8-39.2-54.2s-26.2-15.5-39.2-20.3c-13.1-4.9-26.2-17-39.2-8.8S641.1,278.8,628,284
					c-13.1,5.2-26.2-30.5-39.2-26.7s-26.2,67.2-39.2,49.3c-13.1-17.9-26.2-147-39.2-156.7c-13.1-9.7-26.2,115.4-39.2,98.5
					S444.8,61.9,431.8,48.9s-26.2,102-39.2,121s-26.2-22.4-39.2-6.7s-19.6,85.7-39.2,100.6c-19.6,15-58.9-11.5-78.5-10.8
					c-19.6,0.6-26.2,16.9-39.2,14.6c-13.1-2.3-26.2-17.5-39.2-28.4c-13.1-10.9-26.2-43.2-39.2-36.8c-13.1,6.3-26.2,67.6-39.2,74.7
					c-13.1,7.1-26.2-3.6-39.2-31.9S0,107.1,0,107.1V104.8z"/>
			</g>
			<g id="xAxis" transform="translate(0,560)">
				<path class="st9" d="M0,0h785"/>
				<g transform="translate(0,0)">
					<line class="st9" x1="0" y1="0" x2="0" y2="6"/>
					<text transform="matrix(1 0 0 1 -12.5122 16.1)" class="st10 st11">2,002</text>
				</g>
				<g transform="translate(78.5,0)">
					<line class="st9" x1="0" y1="0" x2="0" y2="6"/>
					<text transform="matrix(1 0 0 1 -12.5122 16.1)" class="st10 st11">2,004</text>
				</g>
				<g transform="translate(157,0)">
					<line class="st9" x1="0" y1="0" x2="0" y2="6"/>
					<text transform="matrix(1 0 0 1 -12.5122 16.1)" class="st10 st11">2,006</text>
				</g>
				<g transform="translate(235.5,0)">
					<line class="st9" x1="0" y1="0" x2="0" y2="6"/>
					<text transform="matrix(1 0 0 1 -12.5122 16.1)" class="st10 st11">2,008</text>
				</g>
				<g transform="translate(314,0)">
					<line class="st9" x1="0" y1="0" x2="0" y2="6"/>
					<text transform="matrix(1 0 0 1 -12.5122 16.1)" class="st10 st11">2,010</text>
				</g>
				<g transform="translate(392.5,0)">
					<line class="st9" x1="0" y1="0" x2="0" y2="6"/>
					<text transform="matrix(1 0 0 1 -12.5122 16.1)" class="st10 st11">2,012</text>
				</g>
				<g transform="translate(471,0)">
					<line class="st9" x1="0" y1="0" x2="0" y2="6"/>
					<text transform="matrix(1 0 0 1 -12.5122 16.1)" class="st10 st11">2,014</text>
				</g>
				<g transform="translate(549.5,0)">
					<line class="st9" x1="0" y1="0" x2="0" y2="6"/>
					<text transform="matrix(1 0 0 1 -12.5122 16.1)" class="st10 st11">2,016</text>
				</g>
				<g transform="translate(628,0)">
					<line class="st9" x1="0" y1="0" x2="0" y2="6"/>
					<text transform="matrix(1 0 0 1 -12.5122 16.1)" class="st10 st11">2,018</text>
				</g>
				<g transform="translate(706.5,0)">
					<line class="st9" x1="0" y1="0" x2="0" y2="6"/>
					<text transform="matrix(1 0 0 1 -12.5122 16.1)" class="st10 st11">2,020</text>
				</g>
				<g transform="translate(785,0)">
					<line class="st9" x1="0" y1="0" x2="0" y2="6"/>
					<text transform="matrix(1 0 0 1 -12.5122 16.1)" class="st10 st11">2,022</text>
				</g>
			</g>
			<text transform="matrix(1 0 0 1 760.3086 556)" class="st12 st13 st14">year</text>
			<text transform="matrix(1 0 0 1 4 10.2949)" class="st12 st13 st14">power</text>
			<g id="labels">
				<text transform="matrix(1 0 0 1 368.606 382.5274)" class="st13 st11">bioenergy</text>
				<text transform="matrix(1 0 0 1 0 294.2074)" class="st13 st11">coal</text>
				<text transform="matrix(1 0 0 1 423.1343 228.76)" class="st13 st11">gas</text>
				<text transform="matrix(1 0 0 1 103.8608 277.165)" class="st13 st11">hydro</text>
				<text transform="matrix(1 0 0 1 492.4644 232.0287)" class="st13 st11">nuclear</text>
				<text transform="matrix(1 0 0 1 377.2192 190.2275)" class="st13 st11">others</text>
				<text transform="matrix(1 0 0 1 655.2993 276.6021)" class="st13 st11">solar</text>
				<text transform="matrix(1 0 0 1 734.3633 152.4907)" class="st13 st11">wind</text>
			</g>
		</g>
	</g>
</g>
</svg>
