<svg xmlns="http://www.w3.org/2000/svg" width="805" height="600"><rect width="805" height="600" x="0" y="0" fill="#FFFFFF" id="backgorund"/><g id="viz"><g transform="translate(0,0)"><g transform="translate(10,20)"><g><path fill="#9e0142" d="M0,455.20743333333337C0,455.20743333333337,26.166666666666668,344.8443833333334,39.25,316.13703333333336C52.33333333333333,287.42968333333334,65.41666666666667,276.0381166666667,78.5,282.96333333333337C91.58333333333333,289.88855,104.66666666666667,351.3603333333333,117.75,357.68833333333333C130.83333333333334,364.01633333333336,143.91666666666666,331.10602777777785,157,320.9313333333334C170.08333333333334,310.7566388888889,183.16666666666666,298.5426305555556,196.25,296.6401666666667C209.33333333333334,294.73770277777777,215.875,309.5846055555555,235.5,309.51654999999994C255.125,309.44849444444435,294.375,281.6025916666666,314,296.2318333333333C333.625,310.861075,340.1666666666667,384.6358775,353.25,397.292C366.3333333333333,409.94812249999995,379.41666666666663,351.25916000000007,392.5,372.1685683333334C405.58333333333337,393.0779766666667,418.66666666666674,530.8096401611111,431.75000000000006,522.74845C444.83333333333337,514.687259838889,457.9166666666667,338.18649542222227,471,323.8014273666667C484.0833333333333,309.41635931111114,497.1666666666667,436.2210380888889,510.25,436.43804166666666C523.3333333333334,436.6550452444444,536.4166666666666,339.82832022222226,549.5,325.10344883333335C562.5833333333334,310.37857744444443,575.6666666666666,348.5992959166667,588.75,348.08881333333335C601.8333333333334,347.57833075,614.9166666666666,316.74218329444443,628,322.0405533333333C641.0833333333334,327.3389233722222,654.1666666666666,370.44421539999996,667.25,379.87903356666664C680.3333333333334,389.3138517333333,693.4166666666666,357.14015209444443,706.5,378.6494623333333C719.5833333333334,400.1587725722222,732.6666666666666,498.78164038888883,745.75,508.934895C758.8333333333334,519.0881496111111,785,439.56899000000004,785,439.56899000000004L785,442.5066566666667C785,442.5066566666667,758.8333333333334,521.1280273888889,745.75,510.48516166666667C732.6666666666666,499.84229594444446,719.5833333333334,400.23903923888884,706.5,378.6494623333333C693.4166666666666,357.0598854277778,680.3333333333334,390.1110739555555,667.25,380.9477002333333C654.1666666666666,371.7843265111111,641.0833333333334,327.97825670555557,628,323.66922C614.9166666666666,319.3601832944444,601.8333333333334,352.3900529722222,588.75,355.09347999999994C575.6666666666666,357.7969070277777,562.5833333333334,324.4559274444444,549.5,339.88978216666663C536.4166666666666,355.32363688888887,523.3333333333334,449.5858730222222,510.25,447.6966083333333C497.1666666666667,445.8073436444444,484.0833333333333,315.6914315333333,471,328.5541940333333C457.9166666666667,341.41695653333335,444.83333333333337,514.1511765055556,431.75000000000006,524.8731833333334C418.66666666666674,535.5951901611112,405.58333333333337,413.64421000000004,392.5,392.88623500000006C379.41666666666663,372.12826000000007,366.3333333333333,416.4344002777778,353.25,400.32533333333333C340.1666666666667,384.21626638888887,333.625,311.36663055555556,314,296.2318333333333C294.375,281.0970361111111,255.125,309.44849444444435,235.5,309.51654999999994C215.875,309.5846055555555,209.33333333333334,294.73770277777777,196.25,296.6401666666667C183.16666666666666,298.5426305555556,170.08333333333334,310.7566388888889,157,320.9313333333334C143.91666666666666,331.10602777777785,130.83333333333334,364.01633333333336,117.75,357.68833333333333C104.66666666666667,351.3603333333333,91.58333333333333,289.88855,78.5,282.96333333333337C65.41666666666667,276.0381166666667,52.33333333333333,287.42968333333334,39.25,316.13703333333336C26.166666666666668,344.8443833333334,0,455.20743333333337,0,455.20743333333337Z"><title>bioenergy</title></path><path fill="#e1524a" d="M0,133.2074333333333C0,133.2074333333333,26.166666666666668,249.17771666666664,39.25,274.1370333333333C52.33333333333333,299.09635,65.41666666666667,272.9270055555556,78.5,282.96333333333337C91.58333333333333,292.99966111111115,104.66666666666667,333.86033333333336,117.75,334.355C130.83333333333334,334.8496666666667,143.91666666666666,296.97713888888893,157,285.9313333333334C170.08333333333334,274.88552777777784,183.16666666666666,273.09763055555555,196.25,268.0801666666666C209.33333333333334,263.0627027777777,215.875,254.3234944444444,235.5,255.82654999999997C255.125,257.32960555555553,294.375,272.4388138888889,314,277.0985C333.625,281.7581861111111,340.1666666666667,280.8665902777778,353.25,283.7846666666667C366.3333333333333,286.7027430555556,379.41666666666663,286.0753738888889,392.5,294.60695833333335C405.58333333333337,303.1385427777778,418.66666666666674,332.96403960555557,431.75000000000006,334.97417333333334C444.83333333333337,336.9843070611111,457.9166666666667,302.3514382,471,306.66776070000003C484.0833333333333,310.98408320000004,497.1666666666667,358.80982697777773,510.25,360.8721083333333C523.3333333333334,362.93438968888887,536.4166666666666,321.171998,549.5,319.04144883333333C562.5833333333334,316.9108996666667,575.6666666666666,347.61035147222225,588.75,348.08881333333335C601.8333333333334,348.56727519444445,614.9166666666666,316.6138499611111,628,321.91222C641.0833333333334,327.2105900388889,654.1666666666666,370.61785428888885,667.25,379.87903356666664C680.3333333333334,389.1402128444444,693.4166666666666,355.96998542777783,706.5,377.4792956666667C719.5833333333334,398.9886059055556,732.6666666666666,498.5866126111111,745.75,508.934895C758.8333333333334,519.2831773888888,785,439.56899000000004,785,439.56899000000004L785,439.56899000000004C785,439.56899000000004,758.8333333333334,519.0881496111111,745.75,508.934895C732.6666666666666,498.78164038888883,719.5833333333334,400.1587725722222,706.5,378.6494623333333C693.4166666666666,357.14015209444443,680.3333333333334,389.3138517333333,667.25,379.87903356666664C654.1666666666666,370.44421539999996,641.0833333333334,327.3389233722222,628,322.0405533333333C614.9166666666666,316.74218329444443,601.8333333333334,347.57833075,588.75,348.08881333333335C575.6666666666666,348.5992959166667,562.5833333333334,310.37857744444443,549.5,325.10344883333335C536.4166666666666,339.82832022222226,523.3333333333334,436.6550452444444,510.25,436.43804166666666C497.1666666666667,436.2210380888889,484.0833333333333,309.41635931111114,471,323.8014273666667C457.9166666666667,338.18649542222227,444.83333333333337,514.687259838889,431.75000000000006,522.74845C418.66666666666674,530.8096401611111,405.58333333333337,393.0779766666667,392.5,372.1685683333334C379.41666666666663,351.25916000000007,366.3333333333333,409.94812249999995,353.25,397.292C340.1666666666667,384.6358775,333.625,310.861075,314,296.2318333333333C294.375,281.6025916666666,255.125,309.44849444444435,235.5,309.51654999999994C215.875,309.5846055555555,209.33333333333334,294.73770277777777,196.25,296.6401666666667C183.16666666666666,298.5426305555556,170.08333333333334,310.7566388888889,157,320.9313333333334C143.91666666666666,331.10602777777785,130.83333333333334,364.01633333333336,117.75,357.68833333333333C104.66666666666667,351.3603333333333,91.58333333333333,289.88855,78.5,282.96333333333337C65.41666666666667,276.0381166666667,52.33333333333333,287.42968333333334,39.25,316.13703333333336C26.166666666666668,344.8443833333334,0,455.20743333333337,0,455.20743333333337Z"><title>coal</title></path><path fill="#fba35e" d="M0,107.07923333333338C0,107.07923333333338,26.166666666666668,221.40895000000003,39.25,250.7229666666667C52.33333333333333,280.03698333333335,65.41666666666667,273.88966111111114,78.5,282.96333333333337C91.58333333333333,292.0370055555556,104.66666666666667,304.67033333333336,117.75,305.165C130.83333333333334,305.6596666666667,143.91666666666666,292.1121388888889,157,285.9313333333334C170.08333333333334,279.75052777777785,183.16666666666666,273.09763055555555,196.25,268.0801666666666C209.33333333333334,263.0627027777777,215.875,254.3234944444444,235.5,255.82654999999997C255.125,257.32960555555553,294.375,290.96236944444445,314,277.0985C333.625,263.23463055555555,340.1666666666667,184.00469305555552,353.25,172.64333333333332C366.3333333333333,161.2819736111111,379.41666666666663,217.27992611111117,392.5,208.93034166666672C405.58333333333337,200.58075722222227,418.66666666666674,115.2193679388889,431.75000000000006,122.54582666666667C444.83333333333337,129.87228539444445,457.9166666666667,223.73361375555558,471,252.88909403333335C484.0833333333333,282.04457431111115,497.1666666666667,287.2531825333333,510.25,297.4787083333333C523.3333333333334,307.70423413333333,536.4166666666666,306.9614535555556,549.5,314.24224883333335C562.5833333333334,321.5230441111111,575.6666666666666,341.68508480555556,588.75,341.16348C601.8333333333334,340.6418751944444,614.9166666666666,311.2906999611111,628,311.11262C641.0833333333334,310.9345400388889,654.1666666666666,335.6162209555555,667.25,340.0950002333333C680.3333333333334,344.57377951111107,693.4166666666666,337.65063542777773,706.5,337.9852956666666C719.5833333333334,338.3199559055555,732.6666666666666,335.8022737222222,745.75,342.10296166666666C758.8333333333334,348.4036496111111,785,375.7894233333333,785,375.7894233333333L785,439.56899000000004C785,439.56899000000004,758.8333333333334,519.2831773888888,745.75,508.934895C732.6666666666666,498.5866126111111,719.5833333333334,398.9886059055556,706.5,377.4792956666667C693.4166666666666,355.96998542777783,680.3333333333334,389.1402128444444,667.25,379.87903356666664C654.1666666666666,370.61785428888885,641.0833333333334,327.2105900388889,628,321.91222C614.9166666666666,316.6138499611111,601.8333333333334,348.56727519444445,588.75,348.08881333333335C575.6666666666666,347.61035147222225,562.5833333333334,316.9108996666667,549.5,319.04144883333333C536.4166666666666,321.171998,523.3333333333334,362.93438968888887,510.25,360.8721083333333C497.1666666666667,358.80982697777773,484.0833333333333,310.98408320000004,471,306.66776070000003C457.9166666666667,302.3514382,444.83333333333337,336.9843070611111,431.75000000000006,334.97417333333334C418.66666666666674,332.96403960555557,405.58333333333337,303.1385427777778,392.5,294.60695833333335C379.41666666666663,286.0753738888889,366.3333333333333,286.7027430555556,353.25,283.7846666666667C340.1666666666667,280.8665902777778,333.625,281.7581861111111,314,277.0985C294.375,272.4388138888889,255.125,257.32960555555553,235.5,255.82654999999997C215.875,254.3234944444444,209.33333333333334,263.0627027777777,196.25,268.0801666666666C183.16666666666666,273.09763055555555,170.08333333333334,274.88552777777784,157,285.9313333333334C143.91666666666666,296.97713888888893,130.83333333333334,334.8496666666667,117.75,334.355C104.66666666666667,333.86033333333336,91.58333333333333,292.99966111111115,78.5,282.96333333333337C65.41666666666667,272.9270055555556,52.33333333333333,299.09635,39.25,274.1370333333333C26.166666666666668,249.17771666666664,0,133.2074333333333,0,133.2074333333333Z"><title>gas</title></path><path fill="#fee89a" d="M0,107.07923333333338C0,107.07923333333338,26.166666666666668,221.40895000000003,39.25,250.7229666666667C52.33333333333333,280.03698333333335,65.41666666666667,283.2229944444445,78.5,282.96333333333337C91.58333333333333,282.7036722222222,104.66666666666667,248.68977777777778,117.75,249.165C130.83333333333334,249.6402222222222,143.91666666666666,282.66213888888893,157,285.8146666666667C170.08333333333334,288.9671944444445,183.16666666666666,273.3115194444444,196.25,268.0801666666666C209.33333333333334,262.84881388888886,215.875,252.94274444444443,235.5,254.42655C255.125,255.91035555555555,294.375,290.63298055555555,314,276.983C333.625,263.33301944444446,340.1666666666667,183.8687763888889,353.25,172.5266666666667C366.3333333333333,161.1845569444445,379.41666666666663,217.26048166666672,392.5,208.93034166666672C405.58333333333337,200.60020166666672,418.66666666666674,115.2193679388889,431.75000000000006,122.54582666666667C444.83333333333337,129.87228539444445,457.9166666666667,223.7530582,471,252.88909403333335C484.0833333333333,282.0251298666667,497.1666666666667,287.1365158666667,510.25,297.3620416666667C523.3333333333334,307.5875674666667,536.4166666666666,306.9746757777778,549.5,314.24224883333335C562.5833333333334,321.5098218888889,575.6666666666666,341.48908480555554,588.75,340.96747999999997C601.8333333333334,340.4458751944444,614.9166666666666,311.25803329444443,628,311.11262C641.0833333333334,310.96720670555555,654.1666666666666,335.6162209555555,667.25,340.0950002333333C680.3333333333334,344.57377951111107,693.4166666666666,337.65063542777773,706.5,337.9852956666666C719.5833333333334,338.3199559055555,732.6666666666666,342.8022737222222,745.75,342.10296166666666C758.8333333333334,341.4036496111111,785,333.78942333333333,785,333.78942333333333L785,375.7894233333333C785,375.7894233333333,758.8333333333334,348.4036496111111,745.75,342.10296166666666C732.6666666666666,335.8022737222222,719.5833333333334,338.3199559055555,706.5,337.9852956666666C693.4166666666666,337.65063542777773,680.3333333333334,344.57377951111107,667.25,340.0950002333333C654.1666666666666,335.6162209555555,641.0833333333334,310.9345400388889,628,311.11262C614.9166666666666,311.2906999611111,601.8333333333334,340.6418751944444,588.75,341.16348C575.6666666666666,341.68508480555556,562.5833333333334,321.5230441111111,549.5,314.24224883333335C536.4166666666666,306.9614535555556,523.3333333333334,307.70423413333333,510.25,297.4787083333333C497.1666666666667,287.2531825333333,484.0833333333333,282.04457431111115,471,252.88909403333335C457.9166666666667,223.73361375555558,444.83333333333337,129.87228539444445,431.75000000000006,122.54582666666667C418.66666666666674,115.2193679388889,405.58333333333337,200.58075722222227,392.5,208.93034166666672C379.41666666666663,217.27992611111117,366.3333333333333,161.2819736111111,353.25,172.64333333333332C340.1666666666667,184.00469305555552,333.625,263.23463055555555,314,277.0985C294.375,290.96236944444445,255.125,257.32960555555553,235.5,255.82654999999997C215.875,254.3234944444444,209.33333333333334,263.0627027777777,196.25,268.0801666666666C183.16666666666666,273.09763055555555,170.08333333333334,279.75052777777785,157,285.9313333333334C143.91666666666666,292.1121388888889,130.83333333333334,305.6596666666667,117.75,305.165C104.66666666666667,304.67033333333336,91.58333333333333,292.0370055555556,78.5,282.96333333333337C65.41666666666667,273.88966111111114,52.33333333333333,280.03698333333335,39.25,250.7229666666667C26.166666666666668,221.40895000000003,0,107.07923333333338,0,107.07923333333338Z"><title>hydro</title></path><path fill="#ebf7a6" d="M0,107.07923333333338C0,107.07923333333338,26.166666666666668,221.40895000000003,39.25,250.7229666666667C52.33333333333333,280.03698333333335,65.41666666666667,291.0007722222223,78.5,282.96333333333337C91.58333333333333,274.92589444444445,104.66666666666667,209.80088888888886,117.75,202.4983333333333C130.83333333333334,195.19577777777775,143.91666666666666,228.21769444444448,157,239.14800000000002C170.08333333333334,250.07830555555557,183.16666666666666,265.53374166666663,196.25,268.0801666666666C209.33333333333334,270.6265916666666,215.875,252.94274444444443,235.5,254.42655C255.125,255.91035555555555,294.375,290.63298055555555,314,276.983C333.625,263.33301944444446,340.1666666666667,183.8687763888889,353.25,172.5266666666667C366.3333333333333,161.1845569444445,379.41666666666663,228.1493705555556,392.5,208.93034166666672C405.58333333333337,189.71131277777783,418.66666666666674,49.88603460555555,431.75000000000006,57.21249333333332C444.83333333333337,64.53895206111109,457.9166666666667,234.6419470888889,471,252.88909403333335C484.0833333333333,271.1362409777778,497.1666666666667,156.46984920000006,510.25,166.69537500000004C523.3333333333334,176.92090080000003,536.4166666666666,296.0857868888889,549.5,314.24224883333335C562.5833333333334,332.3987107777778,575.6666666666666,276.1557514722222,588.75,275.63414666666665C601.8333333333334,275.1125418611111,614.9166666666666,300.3691444055556,628,311.11262C641.0833333333334,321.8560955944444,654.1666666666666,346.5051098444444,667.25,340.0950002333333C680.3333333333334,333.68489062222216,693.4166666666666,283.20619098333333,706.5,272.65196233333336C719.5833333333334,262.0977336833334,732.6666666666666,266.5800515,745.75,276.76962833333334C758.8333333333334,286.95920516666666,785,333.78942333333333,785,333.78942333333333L785,333.78942333333333C785,333.78942333333333,758.8333333333334,341.4036496111111,745.75,342.10296166666666C732.6666666666666,342.8022737222222,719.5833333333334,338.3199559055555,706.5,337.9852956666666C693.4166666666666,337.65063542777773,680.3333333333334,344.57377951111107,667.25,340.0950002333333C654.1666666666666,335.6162209555555,641.0833333333334,310.96720670555555,628,311.11262C614.9166666666666,311.25803329444443,601.8333333333334,340.4458751944444,588.75,340.96747999999997C575.6666666666666,341.48908480555554,562.5833333333334,321.5098218888889,549.5,314.24224883333335C536.4166666666666,306.9746757777778,523.3333333333334,307.5875674666667,510.25,297.3620416666667C497.1666666666667,287.1365158666667,484.0833333333333,282.0251298666667,471,252.88909403333335C457.9166666666667,223.7530582,444.83333333333337,129.87228539444445,431.75000000000006,122.54582666666667C418.66666666666674,115.2193679388889,405.58333333333337,200.60020166666672,392.5,208.93034166666672C379.41666666666663,217.26048166666672,366.3333333333333,161.1845569444445,353.25,172.5266666666667C340.1666666666667,183.8687763888889,333.625,263.33301944444446,314,276.983C294.375,290.63298055555555,255.125,255.91035555555555,235.5,254.42655C215.875,252.94274444444443,209.33333333333334,262.84881388888886,196.25,268.0801666666666C183.16666666666666,273.3115194444444,170.08333333333334,288.9671944444445,157,285.8146666666667C143.91666666666666,282.66213888888893,130.83333333333334,249.6402222222222,117.75,249.165C104.66666666666667,248.68977777777778,91.58333333333333,282.7036722222222,78.5,282.96333333333337C65.41666666666667,283.2229944444445,52.33333333333333,280.03698333333335,39.25,250.7229666666667C26.166666666666668,221.40895000000003,0,107.07923333333338,0,107.07923333333338Z"><title>nuclear</title></path><path fill="#a0d9a3" d="M0,107.07923333333338C0,107.07923333333338,26.166666666666668,216.79672777777782,39.25,245.12296666666668C52.33333333333333,273.4492055555556,65.41666666666667,284.1718833333333,78.5,277.03666666666663C91.58333333333333,269.90144999999995,104.66666666666667,208.62644444444445,117.75,202.31166666666667C130.83333333333334,195.9968888888889,143.91666666666666,228.21847222222223,157,239.14800000000002C170.08333333333334,250.07752777777782,183.16666666666666,265.399575,196.25,267.88883333333337C209.33333333333334,270.3780916666667,215.875,254.7703277777778,235.5,254.08355C255.125,253.3967722222222,294.375,278.8788138888889,314,263.7681666666667C333.625,248.65751944444443,340.1666666666667,178.79358194444436,353.25,163.4196666666666C366.3333333333333,148.04575138888882,379.41666666666663,189.79442611111116,392.5,171.52467500000006C405.58333333333337,153.25492388888895,418.66666666666674,40.34421793888885,431.75000000000006,53.80115999999995C444.83333333333337,67.25810206111106,457.9166666666667,235.9235693111111,471,252.26632736666667C484.0833333333333,268.6090854222222,497.1666666666667,142.52217031111115,510.25,151.85770833333336C523.3333333333334,161.19324635555557,536.4166666666666,288.2544163333333,549.5,308.2795555C562.5833333333334,328.3046946666667,575.6666666666666,272.42478258333335,588.75,272.00854333333336C601.8333333333334,271.5923040833334,614.9166666666666,296.6343216277778,628,305.78212C641.0833333333334,314.92991837222223,654.1666666666666,334.8490598444444,667.25,326.89533356666664C680.3333333333334,318.94160728888886,693.4166666666666,268.6964354277778,706.5,258.05976233333337C719.5833333333334,247.42308923888893,732.6666666666666,251.67938483333333,745.75,263.075295C758.8333333333334,274.47120516666666,785,326.43522333333334,785,326.43522333333334L785,333.78942333333333C785,333.78942333333333,758.8333333333334,286.95920516666666,745.75,276.76962833333334C732.6666666666666,266.5800515,719.5833333333334,262.0977336833334,706.5,272.65196233333336C693.4166666666666,283.20619098333333,680.3333333333334,333.68489062222216,667.25,340.0950002333333C654.1666666666666,346.5051098444444,641.0833333333334,321.8560955944444,628,311.11262C614.9166666666666,300.3691444055556,601.8333333333334,275.1125418611111,588.75,275.63414666666665C575.6666666666666,276.1557514722222,562.5833333333334,332.3987107777778,549.5,314.24224883333335C536.4166666666666,296.0857868888889,523.3333333333334,176.92090080000003,510.25,166.69537500000004C497.1666666666667,156.46984920000006,484.0833333333333,271.1362409777778,471,252.88909403333335C457.9166666666667,234.6419470888889,444.83333333333337,64.53895206111109,431.75000000000006,57.21249333333332C418.66666666666674,49.88603460555555,405.58333333333337,189.71131277777783,392.5,208.93034166666672C379.41666666666663,228.1493705555556,366.3333333333333,161.1845569444445,353.25,172.5266666666667C340.1666666666667,183.8687763888889,333.625,263.33301944444446,314,276.983C294.375,290.63298055555555,255.125,255.91035555555555,235.5,254.42655C215.875,252.94274444444443,209.33333333333334,270.6265916666666,196.25,268.0801666666666C183.16666666666666,265.53374166666663,170.08333333333334,250.07830555555557,157,239.14800000000002C143.91666666666666,228.21769444444448,130.83333333333334,195.19577777777775,117.75,202.4983333333333C104.66666666666667,209.80088888888886,91.58333333333333,274.92589444444445,78.5,282.96333333333337C65.41666666666667,291.0007722222223,52.33333333333333,280.03698333333335,39.25,250.7229666666667C26.166666666666668,221.40895000000003,0,107.07923333333338,0,107.07923333333338Z"><title>others</title></path><path fill="#4ba0b1" d="M0,107.07923333333338C0,107.07923333333338,26.166666666666668,216.79672777777782,39.25,245.12296666666668C52.33333333333333,273.4492055555556,65.41666666666667,284.1718833333333,78.5,277.03666666666663C91.58333333333333,269.90144999999995,104.66666666666667,208.62644444444445,117.75,202.31166666666667C130.83333333333334,195.9968888888889,143.91666666666666,228.27680555555557,157,239.14800000000002C170.08333333333334,250.01919444444448,183.16666666666666,265.24125833333335,196.25,267.53883333333334C209.33333333333334,269.83640833333334,215.875,253.5618944444444,235.5,252.93344999999994C255.125,252.30500555555548,294.375,278.7357416666667,314,263.7681666666667C333.625,248.80059166666666,340.1666666666667,178.7781780555555,353.25,163.12799999999993C366.3333333333333,147.47782194444437,379.41666666666663,188.9116288888889,392.5,169.86709833333336C405.58333333333337,150.8225677777778,418.66666666666674,35.77222650555558,431.75000000000006,48.860816666666686C444.83333333333337,61.94940682777779,457.9166666666667,231.56551568888892,471,248.3986393C484.0833333333333,265.2317629111111,497.1666666666667,140.15973968888883,510.25,149.85955833333327C523.3333333333334,159.5593769777777,536.4166666666666,288.69658533333336,549.5,306.5975511666667C562.5833333333334,324.498517,575.6666666666666,261.03400963888885,588.75,257.2653533333333C601.8333333333334,253.49669702777774,614.9166666666666,289.14503337222226,628,283.9856133333334C641.0833333333334,278.8261932944445,654.1666666666666,234.4480679333334,667.25,226.30883310000004C680.3333333333334,218.1695982666667,693.4166666666666,230.29059235000005,706.5,235.15020433333336C719.5833333333334,240.00981631666667,732.6666666666666,243.04094849999998,745.75,255.46650499999998C758.8333333333334,267.89206149999995,785,309.7035433333333,785,309.7035433333333L785,326.43522333333334C785,326.43522333333334,758.8333333333334,274.47120516666666,745.75,263.075295C732.6666666666666,251.67938483333333,719.5833333333334,247.42308923888893,706.5,258.05976233333337C693.4166666666666,268.6964354277778,680.3333333333334,318.94160728888886,667.25,326.89533356666664C654.1666666666666,334.8490598444444,641.0833333333334,314.92991837222223,628,305.78212C614.9166666666666,296.6343216277778,601.8333333333334,271.5923040833334,588.75,272.00854333333336C575.6666666666666,272.42478258333335,562.5833333333334,328.3046946666667,549.5,308.2795555C536.4166666666666,288.2544163333333,523.3333333333334,161.19324635555557,510.25,151.85770833333336C497.1666666666667,142.52217031111115,484.0833333333333,268.6090854222222,471,252.26632736666667C457.9166666666667,235.9235693111111,444.83333333333337,67.25810206111106,431.75000000000006,53.80115999999995C418.66666666666674,40.34421793888885,405.58333333333337,153.25492388888895,392.5,171.52467500000006C379.41666666666663,189.79442611111116,366.3333333333333,148.04575138888882,353.25,163.4196666666666C340.1666666666667,178.79358194444436,333.625,248.65751944444443,314,263.7681666666667C294.375,278.8788138888889,255.125,253.3967722222222,235.5,254.08355C215.875,254.7703277777778,209.33333333333334,270.3780916666667,196.25,267.88883333333337C183.16666666666666,265.399575,170.08333333333334,250.07752777777782,157,239.14800000000002C143.91666666666666,228.21847222222223,130.83333333333334,195.9968888888889,117.75,202.31166666666667C104.66666666666667,208.62644444444445,91.58333333333333,269.90144999999995,78.5,277.03666666666663C65.41666666666667,284.1718833333333,52.33333333333333,273.4492055555556,39.25,245.12296666666668C26.166666666666668,216.79672777777782,0,107.07923333333338,0,107.07923333333338Z"><title>solar</title></path><path fill="#a89cd2" d="M0,104.7925666666667C0,104.7925666666667,26.166666666666668,215.15561666666665,39.25,243.86296666666664C52.33333333333333,272.5703166666666,65.41666666666667,283.9618833333333,78.5,277.03666666666663C91.58333333333333,270.11145,104.66666666666667,208.63966666666667,117.75,202.31166666666667C130.83333333333334,195.98366666666666,143.91666666666666,228.89397222222223,157,239.06866666666667C170.08333333333334,249.2433611111111,183.16666666666666,261.45736944444445,196.25,263.3598333333333C209.33333333333334,265.2622972222222,215.875,250.41539444444444,235.5,250.48345C255.125,250.55150555555556,294.375,278.9029638888889,314,263.7681666666667C333.625,248.63336944444444,340.1666666666667,175.78373361111105,353.25,159.6746666666666C366.3333333333333,143.56559972222217,379.41666666666663,187.87174000000002,392.5,167.11376500000003C405.58333333333337,146.35579000000004,418.66666666666674,24.404809838888838,431.75000000000006,35.12681666666661C444.83333333333337,45.84882349444439,457.9166666666667,218.58304346666668,471,231.44580596666668C484.0833333333333,244.30856846666669,497.1666666666667,114.1926563555555,510.25,112.30339166666661C523.3333333333334,110.41412697777773,536.4166666666666,204.67636311111113,549.5,220.11021783333337C562.5833333333334,235.5440725555556,575.6666666666666,202.2030929722223,588.75,204.90652000000006C601.8333333333334,207.60994702777782,614.9166666666666,240.63981670555555,628,236.33077999999998C641.0833333333334,232.0217432944444,654.1666666666666,188.2156734888889,667.25,179.0522997666667C680.3333333333334,169.88892604444447,693.4166666666666,202.94011457222226,706.5,181.3505376666667C719.5833333333334,159.76096076111114,732.6666666666666,60.15770405555557,745.75,49.514838333333344C758.8333333333334,38.87197261111112,785,117.49334333333333,785,117.49334333333333L785,309.7035433333333C785,309.7035433333333,758.8333333333334,267.89206149999995,745.75,255.46650499999998C732.6666666666666,243.04094849999998,719.5833333333334,240.00981631666667,706.5,235.15020433333336C693.4166666666666,230.29059235000005,680.3333333333334,218.1695982666667,667.25,226.30883310000004C654.1666666666666,234.4480679333334,641.0833333333334,278.8261932944445,628,283.9856133333334C614.9166666666666,289.14503337222226,601.8333333333334,253.49669702777774,588.75,257.2653533333333C575.6666666666666,261.03400963888885,562.5833333333334,324.498517,549.5,306.5975511666667C536.4166666666666,288.69658533333336,523.3333333333334,159.5593769777777,510.25,149.85955833333327C497.1666666666667,140.15973968888883,484.0833333333333,265.2317629111111,471,248.3986393C457.9166666666667,231.56551568888892,444.83333333333337,61.94940682777779,431.75000000000006,48.860816666666686C418.66666666666674,35.77222650555558,405.58333333333337,150.8225677777778,392.5,169.86709833333336C379.41666666666663,188.9116288888889,366.3333333333333,147.47782194444437,353.25,163.12799999999993C340.1666666666667,178.7781780555555,333.625,248.80059166666666,314,263.7681666666667C294.375,278.7357416666667,255.125,252.30500555555548,235.5,252.93344999999994C215.875,253.5618944444444,209.33333333333334,269.83640833333334,196.25,267.53883333333334C183.16666666666666,265.24125833333335,170.08333333333334,250.01919444444448,157,239.14800000000002C143.91666666666666,228.27680555555557,130.83333333333334,195.9968888888889,117.75,202.31166666666667C104.66666666666667,208.62644444444445,91.58333333333333,269.90144999999995,78.5,277.03666666666663C65.41666666666667,284.1718833333333,52.33333333333333,273.4492055555556,39.25,245.12296666666668C26.166666666666668,216.79672777777782,0,107.07923333333338,0,107.07923333333338Z"><title>wind</title></path></g><g id="xAxis" transform="translate(0,560)" fill="none" font-size="10" font-family="sans-serif" text-anchor="middle"><path class="domain" stroke="currentColor" d="M0,0H785"/><g class="tick" opacity="1" transform="translate(0,0)"><line stroke="currentColor" y2="6"/><text fill="currentColor" y="9" dy="0.71em">2,002</text></g><g class="tick" opacity="1" transform="translate(78.5,0)"><line stroke="currentColor" y2="6"/><text fill="currentColor" y="9" dy="0.71em">2,004</text></g><g class="tick" opacity="1" transform="translate(157,0)"><line stroke="currentColor" y2="6"/><text fill="currentColor" y="9" dy="0.71em">2,006</text></g><g class="tick" opacity="1" transform="translate(235.5,0)"><line stroke="currentColor" y2="6"/><text fill="currentColor" y="9" dy="0.71em">2,008</text></g><g class="tick" opacity="1" transform="translate(314,0)"><line stroke="currentColor" y2="6"/><text fill="currentColor" y="9" dy="0.71em">2,010</text></g><g class="tick" opacity="1" transform="translate(392.5,0)"><line stroke="currentColor" y2="6"/><text fill="currentColor" y="9" dy="0.71em">2,012</text></g><g class="tick" opacity="1" transform="translate(471,0)"><line stroke="currentColor" y2="6"/><text fill="currentColor" y="9" dy="0.71em">2,014</text></g><g class="tick" opacity="1" transform="translate(549.5,0)"><line stroke="currentColor" y2="6"/><text fill="currentColor" y="9" dy="0.71em">2,016</text></g><g class="tick" opacity="1" transform="translate(628,0)"><line stroke="currentColor" y2="6"/><text fill="currentColor" y="9" dy="0.71em">2,018</text></g><g class="tick" opacity="1" transform="translate(706.5,0)"><line stroke="currentColor" y2="6"/><text fill="currentColor" y="9" dy="0.71em">2,020</text></g><g class="tick" opacity="1" transform="translate(785,0)"><line stroke="currentColor" y2="6"/><text fill="currentColor" y="9" dy="0.71em">2,022</text></g></g><text y="556" x="785" text-anchor="end" style="font-family: Arial, sans-serif; font-size: 12px; fill: rgb(123, 123, 123); font-weight: bold;">year</text><text x="4" text-anchor="start" dominant-baseline="hanging" style="font-family: Arial, sans-serif; font-size: 12px; fill: rgb(123, 123, 123); font-weight: bold;">power</text><g id="labels"><text x="392.5" y="382.5274016666667" text-anchor="middle" alignment-baseline="middle" style="font-family: Arial, sans-serif; font-size: 10px; fill: black; font-weight: bold;">bioenergy</text><text x="0" y="294.2074333333333" text-anchor="start" alignment-baseline="middle" style="font-family: Arial, sans-serif; font-size: 10px; fill: black; font-weight: bold;">coal</text><text x="431.75000000000006" y="228.76" text-anchor="middle" alignment-baseline="middle" style="font-family: Arial, sans-serif; font-size: 10px; fill: black; font-weight: bold;">gas</text><text x="117.75" y="277.165" text-anchor="middle" alignment-baseline="middle" style="font-family: Arial, sans-serif; font-size: 10px; fill: black; font-weight: bold;">hydro</text><text x="510.25" y="232.02870833333333" text-anchor="middle" alignment-baseline="middle" style="font-family: Arial, sans-serif; font-size: 10px; fill: black; font-weight: bold;">nuclear</text><text x="392.5" y="190.22750833333336" text-anchor="middle" alignment-baseline="middle" style="font-family: Arial, sans-serif; font-size: 10px; fill: black; font-weight: bold;">others</text><text x="667.25" y="276.6020833333333" text-anchor="middle" alignment-baseline="middle" style="font-family: Arial, sans-serif; font-size: 10px; fill: black; font-weight: bold;">solar</text><text x="745.75" y="152.49067166666669" text-anchor="middle" alignment-baseline="middle" style="font-family: Arial, sans-serif; font-size: 10px; fill: black; font-weight: bold;">wind</text></g></g><text x="4" y="4" style="font-family: Arial, sans-serif; font-size: 12px; fill: black; font-weight: bold; dominant-baseline: hanging;"/></g></g></svg>