<?xml version="1.0" encoding="utf-8"?>
<!-- Generator: Adobe Illustrator 27.2.0, SVG Export Plug-In . SVG Version: 6.00 Build 0)  -->
<svg version="1.1" id="Layer_1" xmlns="http://www.w3.org/2000/svg" xmlns:xlink="http://www.w3.org/1999/xlink" x="0px" y="0px"
	 viewBox="0 0 830.6 600" style="enable-background:new 0 0 830.6 600;" xml:space="preserve">
<style type="text/css">
	.st0{fill:#9E0142;}
	.st1{fill:#FB8072;}
	.st2{fill:#FDB462;}
	.st3{fill:#80B1D3;}
	.st4{fill:#BEBADA;}
	.st5{fill:#B3DE69;}
	.st6{fill:#FFFFB3;}
	.st7{fill:#8DD3C7;}
	.st8{fill:none;stroke:#000000;}
	.st9{font-family:'Roboto-Regular';}
	.st10{font-size:14px;}
	.st11{font-family:'Roboto-Bold';}
	.st12{font-size:21px;}
	.st13{font-size:12px;}
	.st14{fill:none;stroke:#000000;stroke-width:0.75;stroke-miterlimit:10;}
</style>
<path class="st0" d="M7.2,493.6c0,0,27-112.1,40.5-141.2c13.5-29.1,27-40.7,40.5-33.7s27,69.5,40.5,75.9c13.5,6.4,27-27,40.5-37.3
	s27-22.7,40.5-24.7s20.3,13.1,40.5,13.1c20.3-0.1,60.8-28.3,81-13.5c20.3,14.9,27,89.8,40.5,102.6c13.5,12.9,27-46.7,40.5-25.5
	c13.5,21.2,27,161.1,40.5,152.9c13.5-8.2,27-187.4,40.5-202c13.5-14.6,27,114.2,40.5,114.4s27-98.1,40.5-113
	c13.5-15,27,23.9,40.5,23.3c13.5-0.5,27-31.8,40.5-26.4c13.5,5.4,27,49.1,40.5,58.7c13.5,9.6,27-23.1,40.5-1.2s27,122,40.5,132.3
	c13.5,10.3,40.5-70.4,40.5-70.4v3c0,0-27,79.8-40.5,69c-13.5-10.8-27-111.9-40.5-133.9s-27,11.6-40.5,2.3
	c-13.5-9.3-27-53.8-40.5-58.2s-27,29.2-40.5,31.9c-13.5,2.7-27-31.1-40.5-15.4c-13.5,15.7-27,111.4-40.5,109.5s-27-134-40.5-121
	c-13.5,13.1-27,188.5-40.5,199.3c-13.5,10.9-27-112.9-40.5-134c-13.5-21.1-27,23.9-40.5,7.6c-13.5-16.4-20.3-90.3-40.5-105.7
	c-20.3-15.4-60.8,13.4-81,13.5c-20.3,0.1-27-15-40.5-13.1s-27,14.3-40.5,24.7s-27,43.7-40.5,37.3c-13.5-6.4-27-68.8-40.5-75.9
	s-27,4.5-40.5,33.7C34.2,381.5,7.2,493.6,7.2,493.6z"/>
<path class="st1" d="M7.2,166.6c0,0,27,117.8,40.5,143.1c13.5,25.3,27-1.2,40.5,9s27,51.7,40.5,52.2c13.5,0.5,27-38,40.5-49.2
	c13.5-11.2,27-13,40.5-18.1c13.5-5.1,20.3-14,40.5-12.4s60.8,16.9,81,21.6c20.3,4.7,27,3.8,40.5,6.8c13.5,3,27,2.3,40.5,11
	c13.5,8.7,27,38.9,40.5,41c13.5,2,27-33.1,40.5-28.7c13.5,4.4,27,52.9,40.5,55s27-40.3,40.5-42.5s27,29,40.5,29.5
	c13.5,0.5,27-32,40.5-26.6s27,49.5,40.5,58.9c13.5,9.4,27-24.3,40.5-2.4c13.5,21.8,27,123,40.5,133.5c13.5,10.5,40.5-70.4,40.5-70.4
	l0,0c0,0-27,80.7-40.5,70.4c-13.5-10.3-27-110.5-40.5-132.3s-27,10.8-40.5,1.2c-13.5-9.6-27-53.3-40.5-58.7
	c-13.5-5.4-27,25.9-40.5,26.4c-13.5,0.5-27-38.3-40.5-23.3c-13.5,15-27,113.3-40.5,113s-27-129-40.5-114.4
	c-13.5,14.6-27,193.8-40.5,202c-13.5,8.2-27-131.7-40.5-152.9c-13.5-21.2-27,38.4-40.5,25.5c-13.5-12.9-20.3-87.8-40.5-102.6
	c-20.3-14.9-60.8,13.4-81,13.5c-20.3,0.1-27-15-40.5-13.1s-27,14.3-40.5,24.7s-27,43.7-40.5,37.3c-13.5-6.4-27-68.8-40.5-75.9
	s-27,4.5-40.5,33.7C34.2,381.5,7.2,493.6,7.2,493.6V166.6z"/>
<path class="st2" d="M7.2,140.1c0,0,27,116.1,40.5,145.9s27,23.5,40.5,32.7c13.5,9.2,27,22,40.5,22.5c13.5,0.5,27-13.3,40.5-19.5
	c13.5-6.3,27-13,40.5-18.1c13.5-5.1,20.3-14,40.5-12.4s60.8,35.7,81,21.6c20.3-14.1,27-94.5,40.5-106.1c13.5-11.5,27,45.3,40.5,36.8
	c13.5-8.5,27-95.2,40.5-87.7c13.5,7.4,27,102.7,40.5,132.4c13.5,29.6,27,34.9,40.5,45.3s27,9.6,40.5,17c13.5,7.4,27,27.9,40.5,27.3
	c13.5-0.5,27-30.3,40.5-30.5c13.5-0.2,27,24.9,40.5,29.4c13.5,4.5,27-2.5,40.5-2.1s27-2.2,40.5,4.2c13.5,6.4,40.5,34.2,40.5,34.2
	v64.8c0,0-27,80.9-40.5,70.4c-13.5-10.5-27-111.6-40.5-133.5c-13.5-21.8-27,11.8-40.5,2.4c-13.5-9.4-27-53.5-40.5-58.9
	s-27,27.1-40.5,26.6c-13.5-0.5-27-31.7-40.5-29.5s-27,44.6-40.5,42.5s-27-50.7-40.5-55c-13.5-4.4-27,30.8-40.5,28.7
	c-13.5-2-27-32.3-40.5-41c-13.5-8.7-27-8-40.5-11c-13.5-3-20.3-2.1-40.5-6.8c-20.3-4.7-60.8-20.1-81-21.6s-27,7.3-40.5,12.4
	c-13.5,5.1-27,6.9-40.5,18.1c-13.5,11.2-27,49.7-40.5,49.2c-13.5-0.5-27-42-40.5-52.2s-27,16.4-40.5-9
	C34.2,284.4,7.2,166.6,7.2,166.6V140.1z"/>
<path class="st3" d="M7.2,140.1c0,0,27,116.1,40.5,145.9s27,33,40.5,32.7c13.5-0.3,27-34.8,40.5-34.3c13.5,0.5,27,34,40.5,37.2
	c13.5,3.2,27-12.7,40.5-18c13.5-5.3,20.3-15.4,40.5-13.9c20.3,1.5,60.8,36.8,81,22.9c20.3-13.9,27-94.5,40.5-106.1
	c13.5-11.5,27,45.4,40.5,37c13.5-8.5,27-95.2,40.5-87.7c13.5,7.4,27,102.8,40.5,132.4c13.5,29.6,27,34.8,40.5,45.2
	c13.5,10.4,27,9.8,40.5,17.1c13.5,7.4,27,27.7,40.5,27.1c13.5-0.5,27-30.2,40.5-30.3c13.5-0.1,27,24.9,40.5,29.4
	c13.5,4.5,27-2.5,40.5-2.1s27,4.9,40.5,4.2c13.5-0.7,40.5-8.4,40.5-8.4v42.6c0,0-27-27.8-40.5-34.2c-13.5-6.4-27-3.8-40.5-4.2
	s-27,6.7-40.5,2.1c-13.5-4.5-27-29.6-40.5-29.4c-13.5,0.2-27,30-40.5,30.5c-13.5,0.5-27-19.9-40.5-27.3c-13.5-7.4-27-6.6-40.5-17
	s-27-15.7-40.5-45.3c-13.5-29.6-27-124.9-40.5-132.4c-13.5-7.4-27,79.2-40.5,87.7c-13.5,8.5-27-48.4-40.5-36.8
	c-13.5,11.5-20.3,92-40.5,106.1c-20.3,14.1-60.8-20.1-81-21.6s-27,7.3-40.5,12.4c-13.5,5.1-27,11.9-40.5,18.1
	c-13.5,6.3-27,20-40.5,19.5c-13.5-0.5-27-13.3-40.5-22.5c-13.5-9.2-27-3-40.5-32.7S7.2,140.1,7.2,140.1z"/>
<path class="st4" d="M7.2,140.1c0,0,27,116.1,40.5,145.9s27,40.9,40.5,32.7s27-74.3,40.5-81.7c13.5-7.4,27,26.1,40.5,37.2
	c13.5,11.1,27,26.8,40.5,29.4s20.3-15.4,40.5-13.9c20.3,1.5,60.8,36.8,81,22.9c20.3-13.9,27-94.5,40.5-106.1
	c13.5-11.5,27,56.5,40.5,37c13.5-19.5,27-161.5,40.5-154.1c13.5,7.4,27,180.2,40.5,198.7c13.5,18.5,27-97.9,40.5-87.5
	s27,131.4,40.5,149.8c13.5,18.4,27-38.7,40.5-39.2c13.5-0.5,27,25.1,40.5,36c13.5,10.9,27,35.9,40.5,29.4
	c13.5-6.5,27-57.8,40.5-68.5c13.5-10.7,27-6.2,40.5,4.2c13.5,10.3,40.5,57.9,40.5,57.9l0,0c0,0-27,7.7-40.5,8.4
	c-13.5,0.7-27-3.8-40.5-4.2s-27,6.7-40.5,2.1c-13.5-4.5-27-29.6-40.5-29.4c-13.5,0.1-27,29.8-40.5,30.3c-13.5,0.5-27-19.8-40.5-27.1
	c-13.5-7.4-27-6.8-40.5-17.1c-13.5-10.4-27-15.6-40.5-45.2c-13.5-29.6-27-124.9-40.5-132.4c-13.5-7.4-27,79.3-40.5,87.7
	c-13.5,8.5-27-48.5-40.5-37c-13.5,11.5-20.3,92.2-40.5,106.1c-20.3,13.9-60.8-21.4-81-22.9c-20.3-1.5-27,8.6-40.5,13.9
	c-13.5,5.3-27,21.2-40.5,18c-13.5-3.2-27-36.7-40.5-37.2c-13.5-0.5-27,34.1-40.5,34.3c-13.5,0.3-27-3-40.5-32.7S7.2,140.1,7.2,140.1
	z"/>
<path class="st5" d="M7.2,140.1c0,0,27,111.4,40.5,140.2s27,39.7,40.5,32.4s27-69.5,40.5-75.9c13.5-6.4,27,26.3,40.5,37.4
	c13.5,11.1,27,26.7,40.5,29.2c13.5,2.5,20.3-13.3,40.5-14s60.8,25.2,81,9.8c20.3-15.3,27-86.3,40.5-101.9
	c13.5-15.6,27,26.8,40.5,8.2c13.5-18.6,27-133.2,40.5-119.5c13.5,13.7,27,184.9,40.5,201.5c13.5,16.6,27-111.4,40.5-102
	c13.5,9.5,27,138.5,40.5,158.8c13.5,20.3,27-36.4,40.5-36.8c13.5-0.4,27,25,40.5,34.3s27,29.5,40.5,21.4c13.5-8.1,27-59.1,40.5-69.9
	c13.5-10.8,27-6.5,40.5,5.1c13.5,11.6,40.5,64.3,40.5,64.3v7.5c0,0-27-47.6-40.5-57.9c-13.5-10.3-27-14.9-40.5-4.2
	c-13.5,10.7-27,62-40.5,68.5c-13.5,6.5-27-18.5-40.5-29.4c-13.5-10.9-27-36.6-40.5-36c-13.5,0.5-27,57.6-40.5,39.2
	c-13.5-18.4-27-139.4-40.5-149.8s-27,106-40.5,87.5c-13.5-18.5-27-191.3-40.5-198.7c-13.5-7.4-27,134.5-40.5,154.1
	c-13.5,19.5-27-48.5-40.5-37c-13.5,11.5-20.3,92.2-40.5,106.1c-20.3,13.9-60.8-21.4-81-22.9c-20.3-1.5-27,16.4-40.5,13.9
	s-27-18.3-40.5-29.4c-13.5-11.1-27-44.6-40.5-37.2c-13.5,7.4-27,73.5-40.5,81.7s-27-3-40.5-32.7S7.2,140.1,7.2,140.1z"/>
<path class="st6" d="M7.2,140.1c0,0,27,111.4,40.5,140.2s27,39.7,40.5,32.4s27-69.5,40.5-75.9c13.5-6.4,27,26.4,40.5,37.4
	c13.5,11,27,26.5,40.5,28.8c13.5,2.3,20.3-14.2,40.5-14.8s60.8,26.2,81,11c20.3-15.2,27-86.3,40.5-102.2c13.5-15.9,27,26.2,40.5,6.8
	c13.5-19.3,27-136.2,40.5-122.9c13.5,13.3,27,185.5,40.5,202.6c13.5,17.1,27-109.9,40.5-100.1s27,141,40.5,159.2
	c13.5,18.2,27-46.3,40.5-50.1c13.5-3.8,27,32.4,40.5,27.1s27-50.3,40.5-58.6c13.5-8.3,27,4,40.5,9c13.5,4.9,27,8,40.5,20.6
	c13.5,12.6,40.5,55.1,40.5,55.1v17c0,0-27-52.8-40.5-64.3c-13.5-11.6-27-15.9-40.5-5.1c-13.5,10.8-27,61.8-40.5,69.9
	c-13.5,8.1-27-12.1-40.5-21.4s-27-34.7-40.5-34.3c-13.5,0.4-27,57.2-40.5,36.8c-13.5-20.3-27-149.4-40.5-158.8
	c-13.5-9.5-27,118.5-40.5,102c-13.5-16.6-27-187.9-40.5-201.5c-13.5-13.7-27,101-40.5,119.5c-13.5,18.6-27-23.8-40.5-8.2
	c-13.5,15.6-20.3,86.6-40.5,101.9c-20.3,15.3-60.8-10.5-81-9.8s-27,16.5-40.5,14c-13.5-2.5-27-18.1-40.5-29.2
	c-13.5-11.1-27-43.8-40.5-37.4c-13.5,6.4-27,68.6-40.5,75.9s-27-3.6-40.5-32.4S7.2,140.1,7.2,140.1z"/>
<path class="st7" d="M7.2,137.8c0,0,27,112.1,40.5,141.2s27,40.7,40.5,33.7s27-69.5,40.5-75.9c13.5-6.4,27,27,40.5,37.3
	c13.5,10.3,27,22.7,40.5,24.7c13.5,1.9,20.3-13.1,40.5-13.1c20.3,0.1,60.8,28.9,81,13.5c20.3-15.4,27-89.3,40.5-105.7
	c13.5-16.4,27,28.6,40.5,7.6c13.5-21.1,27-144.9,40.5-134c13.5,10.9,27,186.3,40.5,199.3c13.5,13.1,27-119.1,40.5-121
	s27,93.8,40.5,109.5s27-18.2,40.5-15.4c13.5,2.7,27,36.3,40.5,31.9c13.5-4.4,27-48.9,40.5-58.2c13.5-9.3,27,24.3,40.5,2.3
	s27-123.1,40.5-133.9c13.5-10.8,40.5,69,40.5,69v195.2c0,0-27-42.5-40.5-55.1c-13.5-12.6-27-15.7-40.5-20.6
	c-13.5-4.9-27-17.2-40.5-9c-13.5,8.3-27,53.3-40.5,58.6s-27-31-40.5-27.1c-13.5,3.8-27,68.3-40.5,50.1
	c-13.5-18.2-27-149.3-40.5-159.2s-27,117.1-40.5,100.1c-13.5-17.1-27-189.3-40.5-202.6c-13.5-13.3-27,103.5-40.5,122.9
	c-13.5,19.3-27-22.7-40.5-6.8c-13.5,15.9-20.3,87-40.5,102.2c-20.3,15.2-60.8-11.6-81-11s-27,17.2-40.5,14.8
	c-13.5-2.3-27-17.8-40.5-28.8c-13.5-11-27-43.8-40.5-37.4c-13.5,6.4-27,68.6-40.5,75.9s-27-3.6-40.5-32.4S7.2,140.1,7.2,140.1V137.8
	z"/>
<path class="st8" d="M7.2,579.7h810.3"/>
<text transform="matrix(1 0 0 1 6.5912 596.0254)" class="st9 st10">2002</text>
<text transform="matrix(1 0 0 1 79.2958 596.0254)" class="st9 st10">2004</text>
<text transform="matrix(1 0 0 1 160.3217 596.0254)" class="st9 st10">2006</text>
<text transform="matrix(1 0 0 1 241.3476 596.0254)" class="st9 st10">2008</text>
<text transform="matrix(1 0 0 1 322.3739 596.0254)" class="st9 st10">2010</text>
<text transform="matrix(1 0 0 1 403.3993 596.0254)" class="st9 st10">2012</text>
<text transform="matrix(1 0 0 1 480.4262 596.0254)" class="st9 st10">2014</text>
<text transform="matrix(1 0 0 1 562.4525 596.0254)" class="st9 st10">2016</text>
<text transform="matrix(1 0 0 1 643.4779 596.0254)" class="st9 st10">2018</text>
<text transform="matrix(1 0 0 1 719.5052 596.0254)" class="st9 st10">2020</text>
<text transform="matrix(1 0 0 1 787.5306 596.0254)" class="st9 st10">2022</text>
<text transform="matrix(1 0 0 1 5.5663 23.4512)" class="st11 st12">South Korea&apos;s permitting trends show glimpse of its energy future</text>
<text transform="matrix(1 0 0 1 863.5663 14.4512)"><tspan x="0" y="0" class="st11" style="font-size:18.5px;">South Korea&apos;s permitting trends show glimpse </tspan><tspan x="0" y="22.2" class="st11" style="font-size:18.5px;">of its energy future</tspan></text>
<rect x="8.2" y="38.9" class="st1" width="12.2" height="12.2"/>
<text transform="matrix(1 0 0 1 22.798 49.2193)" class="st9 st10">coal</text>
<rect x="60.2" y="38.9" class="st2" width="12.2" height="12.2"/>
<text transform="matrix(1 0 0 1 74.798 49.2193)" class="st9 st10">gas</text>
<rect x="110.2" y="38.9" class="st6" width="12.2" height="12.2"/>
<text transform="matrix(1 0 0 1 124.798 49.2193)" class="st9 st10">solar</text>
<rect x="169.2" y="38.9" class="st7" width="12.2" height="12.2"/>
<text transform="matrix(1 0 0 1 183.798 49.2193)" class="st9 st10">wind</text>
<rect x="227.2" y="38.9" class="st3" width="12.2" height="12.2"/>
<text transform="matrix(1 0 0 1 241.798 49.2193)" class="st9 st10">hydro</text>
<rect x="289.2" y="38.9" class="st4" width="12.2" height="12.2"/>
<text transform="matrix(1 0 0 1 303.798 49.2193)" class="st9 st10">nuclear</text>
<rect x="363.2" y="38.9" class="st0" width="12.2" height="12.2"/>
<text transform="matrix(1 0 0 1 377.798 49.2193)" class="st9 st10">bioenergy</text>
<rect x="453.2" y="38.9" class="st5" width="12.2" height="12.2"/>
<text transform="matrix(1 0 0 1 467.798 49.2193)" class="st9 st10">others</text>
<rect x="865.2" y="46.9" class="st1" width="12.2" height="12.2"/>
<text transform="matrix(1 0 0 1 879.7979 57.2193)" class="st9" style="font-size:13px;">coal</text>
<rect x="917.2" y="46.9" class="st2" width="12.2" height="12.2"/>
<text transform="matrix(1 0 0 1 931.7979 57.2193)" class="st9" style="font-size:13px;">gas</text>
<rect x="967.2" y="46.9" class="st6" width="12.2" height="12.2"/>
<text transform="matrix(1 0 0 1 981.7979 57.2193)" class="st9" style="font-size:13px;">solar</text>
<rect x="1026.2" y="46.9" class="st7" width="12.2" height="12.2"/>
<text transform="matrix(1 0 0 1 1040.798 57.2193)" class="st9" style="font-size:13px;">wind</text>
<rect x="1084.2" y="46.9" class="st3" width="12.2" height="12.2"/>
<text transform="matrix(1 0 0 1 1098.798 57.2193)" class="st9" style="font-size:13px;">hydro</text>
<rect x="1146.2" y="46.9" class="st4" width="12.2" height="12.2"/>
<text transform="matrix(1 0 0 1 1160.798 57.2193)" class="st9" style="font-size:13px;">nuclear</text>
<rect x="865.2" y="65.9" class="st0" width="12.2" height="12.2"/>
<text transform="matrix(1 0 0 1 879.798 76.2193)" class="st9" style="font-size:13px;">bioenergy</text>
<rect x="955.2" y="65.9" class="st5" width="12.2" height="12.2"/>
<text transform="matrix(1 0 0 1 969.798 76.2193)" class="st9" style="font-size:13px;">others</text>
<text transform="matrix(1 0 0 1 593.3861 103.9473)"><tspan x="0" y="0" class="st9 st13">Wind permitting increased</tspan><tspan x="0" y="14.4" class="st9 st13">dramatically starting 2016,</tspan><tspan x="0" y="28.8" class="st9 st13">becoming the most permitted </tspan><tspan x="0" y="43.2" class="st9 st13">energy source in 2022.</tspan></text>
<text transform="matrix(1 0 0 1 253.3861 511.9473)"><tspan x="0" y="0" class="st9 st13">Coal permitting peaked </tspan><tspan x="0" y="14.4" class="st9 st13">in 2012 and has been </tspan><tspan x="0" y="28.8" class="st9 st13">gradually decreasing.</tspan></text>
<text transform="matrix(1 0 0 1 621.3861 472.9473)"><tspan x="0" y="0" class="st9 st13">With coal being</tspan><tspan x="0" y="14.4" class="st9 st13">phased out, gas </tspan><tspan x="0" y="28.8" class="st9 st13">permitting is haing </tspan><tspan x="0" y="43.2" class="st9 st13">a recent boom.</tspan></text>
<g>
	<g>
		<path class="st14" d="M669.8,155.5c0,0,8.7,30.5,41,37c25.9,5.2,45.2-6,52.6-11.9"/>
		<g>
			<polygon points="764.9,183.4 766.6,177.2 760.4,178.9 			"/>
		</g>
	</g>
</g>
<g>
	<g>
		<path class="st14" d="M375.9,525.5c0,0,25,10,48-5c20.2-13.2,23.5-29.4,24.3-37.4"/>
		<g>
			<polygon points="451.2,484.3 448.5,478.6 444.9,483.8 			"/>
		</g>
	</g>
</g>
<g>
	<g>
		<path class="st14" d="M682.3,525c0,0,23.1,19.2,55.6,14c25.9-4.1,36.7-19.7,40.4-27.3"/>
		<g>
			<polygon points="780.8,513.7 779.8,507.4 774.9,511.4 			"/>
		</g>
	</g>
</g>
</svg>
