<?xml version="1.0" encoding="utf-8"?>
<!-- Generator: Adobe Illustrator 27.2.0, SVG Export Plug-In . SVG Version: 6.00 Build 0)  -->
<svg version="1.1" xmlns="http://www.w3.org/2000/svg" xmlns:xlink="http://www.w3.org/1999/xlink" x="0px" y="0px"
	 viewBox="0 0 390 728.4" style="enable-background:new 0 0 390 728.4;" xml:space="preserve">
<style type="text/css">
	.st0{fill:#9E0142;}
	.st1{fill:#FB8072;}
	.st2{fill:#FDB462;}
	.st3{fill:#80B1D3;}
	.st4{fill:#BEBADA;}
	.st5{fill:#B3DE69;}
	.st6{fill:#FFFFB3;}
	.st7{fill:#8DD3C7;}
	.st8{fill:none;stroke:#000000;}
	.st9{font-family:'Roboto-Bold';}
	.st10{font-size:18.5px;}
	.st11{font-family:'Roboto-Regular';}
	.st12{font-size:13px;}
	.st13{fill:none;stroke:#000000;stroke-width:0.75;stroke-miterlimit:10;}
	.st14{fill:#686868;}
	.st15{font-size:11px;}
</style>
<g id="Layer_1">
	<path class="st0" d="M-1099.1,550.6c0,0,30.9-127.3,46.4-160.3c15.5-33,30.9-46.2,46.4-38.3c15.5,7.9,30.9,78.9,46.4,86.2
		c15.5,7.3,30.9-30.7,46.4-42.4s30.9-25.8,46.4-28c15.5-2.3,23.2,14.9,46.4,14.9c23.2-0.1,69.6-32.1,92.7-15.3
		c23.2,16.9,30.9,102,46.4,116.5c15.5,14.6,30.9-53,46.4-29s30.9,182.9,46.4,173.6c15.5-9.3,30.9-212.8,46.4-229.4
		c15.5-16.6,30.9,129.7,46.4,129.9c15.5,0.2,30.9-111.4,46.4-128.3c15.5-17,30.9,27.1,46.4,26.5c15.5-0.6,30.9-36.1,46.4-30
		c15.5,6.1,30.9,55.8,46.4,66.7s30.9-26.2,46.4-1.4c15.5,24.9,30.9,138.5,46.4,150.2s46.4-79.9,46.4-79.9v3.4
		c0,0-30.9,90.6-46.4,78.3s-30.9-127.1-46.4-152c-15.5-25-30.9,13.2-46.4,2.6c-15.5-10.6-30.9-61.1-46.4-66.1
		c-15.5-5-30.9,33.2-46.4,36.2c-15.5,3.1-30.9-35.3-46.4-17.5s-30.9,126.5-46.4,124.3c-15.5-2.2-30.9-152.2-46.4-137.4
		c-15.5,14.9-30.9,214-46.4,226.3c-15.5,12.4-30.9-128.2-46.4-152.2s-30.9,27.1-46.4,8.6c-15.5-18.6-23.2-102.5-46.4-120
		c-23.2-17.5-69.6,15.2-92.7,15.3c-23.2,0.1-30.9-17-46.4-14.9s-30.9,16.2-46.4,28s-30.9,49.6-46.4,42.4s-30.9-78.1-46.4-86.2
		s-30.9,5.1-46.4,38.3C-1068.2,423.3-1099.1,550.6-1099.1,550.6z"/>
	<path class="st1" d="M-1099.1,179.3c0,0,30.9,133.8,46.4,162.5c15.5,28.7,30.9-1.4,46.4,10.2s30.9,58.7,46.4,59.3
		c15.5,0.6,30.9-43.1,46.4-55.9c15.5-12.7,30.9-14.8,46.4-20.6c15.5-5.8,23.2-15.9,46.4-14.1c23.1,1.8,69.6,19.2,92.7,24.5
		c23.2,5.3,30.9,4.3,46.4,7.7c15.5,3.4,30.9,2.6,46.4,12.5c15.5,9.9,30.9,44.2,46.4,46.6c15.5,2.3,30.9-37.6,46.4-32.6
		c15.5,5,30.9,60.1,46.4,62.5c15.5,2.4,30.9-45.8,46.4-48.3s30.9,32.9,46.4,33.5c15.5,0.6,30.9-36.3,46.4-30.2
		c15.5,6.1,30.9,56.2,46.4,66.9s30.9-27.6,46.4-2.7c15.5,24.8,30.9,139.7,46.4,151.6s46.4-79.9,46.4-79.9l0,0
		c0,0-30.9,91.6-46.4,79.9s-30.9-125.5-46.4-150.2c-15.5-24.8-30.9,12.3-46.4,1.4c-15.5-10.9-30.9-60.5-46.4-66.7
		c-15.5-6.1-30.9,29.4-46.4,30c-15.5,0.6-30.9-43.5-46.4-26.5S-481,529.4-496.4,529c-15.5-0.3-30.9-146.5-46.4-129.9
		c-15.5,16.6-30.9,220.1-46.4,229.4c-15.5,9.3-30.9-149.5-46.4-173.6c-15.5-24.1-30.9,43.6-46.4,29c-15.5-14.6-23.2-99.7-46.4-116.5
		c-23.2-16.9-69.6,15.2-92.7,15.3c-23.2,0.1-30.9-17-46.4-14.9s-30.9,16.2-46.4,28s-30.9,49.6-46.4,42.4
		c-15.5-7.3-30.9-78.1-46.4-86.2s-30.9,5.1-46.4,38.3c-15.5,33-46.4,160.3-46.4,160.3V179.3z"/>
	<path class="st2" d="M-1099.1,149.2c0,0,30.9,131.8,46.4,165.7c15.5,33.8,30.9,26.7,46.4,37.1s30.9,25,46.4,25.5
		c15.5,0.6,30.9-15.1,46.4-22.1c15.5-7.2,30.9-14.8,46.4-20.6c15.5-5.8,23.2-15.9,46.4-14.1c23.1,1.8,69.6,40.5,92.7,24.5
		c23.2-16,30.9-107.3,46.4-120.5c15.5-13.1,30.9,51.4,46.4,41.8c15.5-9.7,30.9-108.1,46.4-99.6c15.5,8.4,30.9,116.6,46.4,150.3
		c15.5,33.6,30.9,39.6,46.4,51.4c15.5,11.8,30.9,10.9,46.4,19.3s30.9,31.7,46.4,31c15.5-0.6,30.9-34.4,46.4-34.6
		c15.5-0.2,30.9,28.3,46.4,33.4s30.9-2.8,46.4-2.4c15.5,0.5,30.9-2.5,46.4,4.8c15.5,7.3,46.4,38.8,46.4,38.8v73.6
		c0,0-30.9,91.9-46.4,79.9s-30.9-126.7-46.4-151.6c-15.5-24.8-30.9,13.4-46.4,2.7s-30.9-60.7-46.4-66.9
		c-15.5-6.1-30.9,30.8-46.4,30.2c-15.5-0.6-30.9-36-46.4-33.5s-30.9,50.6-46.4,48.3c-15.5-2.4-30.9-57.6-46.4-62.5
		c-15.5-5-30.9,35-46.4,32.6c-15.5-2.3-30.9-36.7-46.4-46.6s-30.9-9.1-46.4-12.5c-15.5-3.4-23.2-2.4-46.4-7.7
		c-23.2-5.3-69.6-22.8-92.7-24.5c-23.1-1.7-30.9,8.3-46.4,14.1c-15.5,5.8-30.9,7.8-46.4,20.6s-30.9,56.4-46.4,55.9
		c-15.5-0.6-30.9-47.7-46.4-59.3s-30.9,18.6-46.4-10.2c-15.5-28.6-46.4-162.4-46.4-162.4V149.2z"/>
	<path class="st3" d="M-1099.1,149.2c0,0,30.9,131.8,46.4,165.7c15.5,33.8,30.9,37.5,46.4,37.1c15.5-0.3,30.9-39.5,46.4-38.9
		c15.5,0.6,30.9,38.6,46.4,42.2c15.5,3.6,30.9-14.4,46.4-20.4s23.2-17.5,46.4-15.8c23.2,1.7,69.6,41.8,92.7,26
		c23.2-15.8,30.9-107.3,46.4-120.5c15.5-13.1,30.9,51.6,46.4,42c15.5-9.7,30.9-108.1,46.4-99.6c15.5,8.4,30.9,116.7,46.4,150.3
		c15.5,33.6,30.9,39.5,46.4,51.3c15.5,11.8,30.9,11.1,46.4,19.4c15.5,8.4,30.9,31.5,46.4,30.8c15.5-0.6,30.9-34.3,46.4-34.4
		c15.5-0.1,30.9,28.3,46.4,33.4s30.9-2.8,46.4-2.4c15.5,0.5,30.9,5.6,46.4,4.8c15.5-0.8,46.4-9.5,46.4-9.5v48.4
		c0,0-30.9-31.6-46.4-38.8c-15.5-7.3-30.9-4.3-46.4-4.8c-15.5-0.5-30.9,7.6-46.4,2.4c-15.5-5.1-30.9-33.6-46.4-33.4
		c-15.5,0.2-30.9,34.1-46.4,34.6c-15.5,0.6-30.9-22.6-46.4-31c-15.5-8.4-30.9-7.5-46.4-19.3c-15.5-11.8-30.9-17.8-46.4-51.4
		c-15.5-33.6-30.9-141.8-46.4-150.3c-15.5-8.4-30.9,89.9-46.4,99.6s-30.9-55-46.4-41.8c-15.5,13.1-23.2,104.5-46.4,120.5
		c-23.2,16-69.6-22.8-92.7-24.5c-23.1-1.7-30.9,8.3-46.4,14.1c-15.5,5.8-30.9,13.5-46.4,20.6c-15.5,7.2-30.9,22.7-46.4,22.1
		c-15.5-0.6-30.9-15.1-46.4-25.5s-30.9-3.4-46.4-37.1S-1099.1,149.2-1099.1,149.2z"/>
	<path class="st4" d="M-1099.1,149.2c0,0,30.9,131.8,46.4,165.7c15.5,33.8,30.9,46.4,46.4,37.1s30.9-84.4,46.4-92.8
		s30.9,29.6,46.4,42.2s30.9,30.4,46.4,33.4s23.2-17.5,46.4-15.8c23.2,1.7,69.6,41.8,92.7,26c23.2-15.8,30.9-107.3,46.4-120.5
		c15.5-13.1,30.9,64.2,46.4,42s30.9-183.4,46.4-175s30.9,204.6,46.4,225.6c15.5,21,30.9-111.2,46.4-99.4
		c15.5,11.8,30.9,149.2,46.4,170.1s30.9-43.9,46.4-44.5c15.5-0.6,30.9,28.5,46.4,40.9c15.5,12.4,30.9,40.8,46.4,33.4
		s30.9-65.6,46.4-77.8c15.5-12.1,30.9-7,46.4,4.8c15.5,11.7,46.4,65.7,46.4,65.7l0,0c0,0-30.9,8.7-46.4,9.5s-30.9-4.3-46.4-4.8
		c-15.5-0.5-30.9,7.6-46.4,2.4c-15.5-5.1-30.9-33.6-46.4-33.4c-15.5,0.1-30.9,33.8-46.4,34.4c-15.5,0.6-30.9-22.5-46.4-30.8
		c-15.5-8.4-30.9-7.7-46.4-19.4c-15.5-11.8-30.9-17.7-46.4-51.3c-15.5-33.6-30.9-141.8-46.4-150.3c-15.5-8.4-30.9,90-46.4,99.6
		c-15.5,9.7-30.9-55.1-46.4-42c-15.5,13.1-23.2,104.7-46.4,120.5c-23.2,15.8-69.6-24.3-92.7-26c-23.2-1.7-30.9,9.8-46.4,15.8
		s-30.9,24.1-46.4,20.4c-15.5-3.6-30.9-41.7-46.4-42.2c-15.5-0.6-30.9,38.7-46.4,38.9c-15.5,0.3-30.9-3.4-46.4-37.1
		S-1099.1,149.2-1099.1,149.2z"/>
	<path class="st5" d="M-1099.1,149.2c0,0,30.9,126.5,46.4,159.2c15.5,32.7,30.9,45.1,46.4,36.8s30.9-78.9,46.4-86.2
		c15.5-7.3,30.9,29.9,46.4,42.5s30.9,30.3,46.4,33.2s23.2-15.1,46.4-15.9c23.1-0.8,69.6,28.6,92.7,11.1
		c23.2-17.4,30.9-98,46.4-115.7c15.5-17.7,30.9,30.4,46.4,9.3s30.9-151.2,46.4-135.7s30.9,209.9,46.4,228.8
		c15.5,18.8,30.9-126.5,46.4-115.8c15.5,10.8,30.9,157.3,46.4,180.3s30.9-41.3,46.4-41.8c15.5-0.5,30.9,28.4,46.4,38.9
		c15.5,10.6,30.9,33.5,46.4,24.3c15.5-9.2,30.9-67.1,46.4-79.4c15.5-12.3,30.9-7.4,46.4,5.8c15.5,13.2,46.4,73,46.4,73v8.5
		c0,0-30.9-54-46.4-65.7c-15.5-11.7-30.9-16.9-46.4-4.8c-15.5,12.1-30.9,70.4-46.4,77.8s-30.9-21-46.4-33.4
		c-15.5-12.4-30.9-41.6-46.4-40.9c-15.5,0.6-30.9,65.4-46.4,44.5s-30.9-158.3-46.4-170.1c-15.5-11.8-30.9,120.4-46.4,99.4
		c-15.5-21-30.9-217.2-46.4-225.6s-30.9,152.7-46.4,175c-15.5,22.1-30.9-55.1-46.4-42c-15.5,13.1-23.2,104.7-46.4,120.5
		c-23.2,15.8-69.6-24.3-92.7-26c-23.2-1.7-30.9,18.6-46.4,15.8s-30.9-20.8-46.4-33.4s-30.9-50.6-46.4-42.2
		c-15.5,8.4-30.9,83.5-46.4,92.8s-30.9-3.4-46.4-37.1S-1099.1,149.2-1099.1,149.2z"/>
	<path class="st6" d="M-1099.1,149.2c0,0,30.9,126.5,46.4,159.2c15.5,32.7,30.9,45.1,46.4,36.8s30.9-78.9,46.4-86.2
		c15.5-7.3,30.9,30,46.4,42.5s30.9,30.1,46.4,32.7c15.5,2.6,23.2-16.1,46.4-16.8c23.1-0.7,69.6,29.7,92.7,12.5
		c23.2-17.3,30.9-98,46.4-116c15.5-18.1,30.9,29.7,46.4,7.7C-620,199.6-604.6,66.9-589.1,82s30.9,210.6,46.4,230
		c15.5,19.4,30.9-124.8,46.4-113.7c15.5,11.1,30.9,160.1,46.4,180.8s30.9-52.6,46.4-56.9c15.5-4.3,30.9,36.8,46.4,30.8
		c15.5-6,30.9-57.1,46.4-66.5s30.9,4.5,46.4,10.2c15.5,5.6,30.9,9.1,46.4,23.4s46.4,62.6,46.4,62.6V402c0,0-30.9-60-46.4-73
		c-15.5-13.2-30.9-18.1-46.4-5.8c-15.5,12.3-30.9,70.2-46.4,79.4c-15.5,9.2-30.9-13.7-46.4-24.3c-15.5-10.6-30.9-39.4-46.4-38.9
		c-15.5,0.5-30.9,64.9-46.4,41.8c-15.5-23-30.9-169.6-46.4-180.3c-15.5-10.8-30.9,134.6-46.4,115.8
		c-15.5-18.8-30.9-213.4-46.4-228.8c-15.5-15.6-30.9,114.7-46.4,135.7c-15.5,21.1-30.9-27-46.4-9.3c-15.5,17.7-23.2,98.3-46.4,115.7
		c-23.2,17.4-69.6-11.9-92.7-11.1c-23.1,0.8-30.9,18.7-46.4,15.9s-30.9-20.6-46.4-33.2s-30.9-49.7-46.4-42.5
		c-15.5,7.3-30.9,77.9-46.4,86.2s-30.9-4.1-46.4-36.8S-1099.1,149.2-1099.1,149.2z"/>
	<path class="st7" d="M-1099.1,146.6c0,0,30.9,127.3,46.4,160.3c15.5,33,30.9,46.2,46.4,38.3c15.5-7.9,30.9-78.9,46.4-86.2
		c15.5-7.3,30.9,30.7,46.4,42.4s30.9,25.8,46.4,28c15.5,2.2,23.2-14.9,46.4-14.9c23.2,0.1,69.6,32.8,92.7,15.3
		c23.2-17.5,30.9-101.4,46.4-120c15.5-18.6,30.9,32.5,46.4,8.6c15.5-24,30.9-164.5,46.4-152.2s30.9,211.5,46.4,226.3
		c15.5,14.9,30.9-135.2,46.4-137.4c15.5-2.2,30.9,106.5,46.4,124.3s30.9-20.7,46.4-17.5c15.5,3.1,30.9,41.2,46.4,36.2
		c15.5-5,30.9-55.5,46.4-66.1s30.9,27.6,46.4,2.6c15.5-25,30.9-139.8,46.4-152s46.4,78.3,46.4,78.3v221.6c0,0-30.9-48.3-46.4-62.6
		c-15.5-14.3-30.9-17.8-46.4-23.4c-15.5-5.6-30.9-19.5-46.4-10.2c-15.5,9.4-30.9,60.5-46.4,66.5c-15.5,6-30.9-35.2-46.4-30.8
		c-15.5,4.3-30.9,77.6-46.4,56.9c-15.5-20.7-30.9-169.5-46.4-180.8c-15.5-11.2-30.9,133-46.4,113.7c-15.5-19.4-30.9-214.9-46.4-230
		s-30.9,117.5-46.4,139.5c-15.5,21.9-30.9-25.8-46.4-7.7c-15.5,18.1-23.2,98.8-46.4,116c-23.2,17.3-69.6-13.2-92.7-12.5
		c-23.1,0.7-30.9,19.5-46.4,16.8c-15.5-2.6-30.9-20.2-46.4-32.7s-30.9-49.7-46.4-42.5s-30.9,77.9-46.4,86.2s-30.9-4.1-46.4-36.8
		s-46.4-159.3-46.4-159.3V146.6z"/>
	<path class="st8" d="M-1099.1,648.3h927.5"/>
	<text transform="matrix(1.0081 0 0 1 -1099.7786 666.887)" class="st11" style="font-size:14px;">2002</text>
	<text transform="matrix(1.0081 0 0 1 -1016.5555 666.887)" class="st11" style="font-size:14px;">2004</text>
	<text transform="matrix(1.0081 0 0 1 -923.8079 666.887)" class="st11" style="font-size:14px;">2006</text>
	<text transform="matrix(1.0081 0 0 1 -831.0599 666.887)" class="st11" style="font-size:14px;">2008</text>
	<text transform="matrix(1.0081 0 0 1 -738.3113 666.887)" class="st11" style="font-size:14px;">2010</text>
	<text transform="matrix(1.0081 0 0 1 -645.5638 666.887)" class="st11" style="font-size:14px;">2012</text>
	<text transform="matrix(1.0081 0 0 1 -557.3924 666.887)" class="st11" style="font-size:14px;">2014</text>
	<text transform="matrix(1.0081 0 0 1 -463.4998 666.887)" class="st11" style="font-size:14px;">2016</text>
	<text transform="matrix(1.0081 0 0 1 -370.7527 666.887)" class="st11" style="font-size:14px;">2018</text>
	<text transform="matrix(1.0081 0 0 1 -283.7254 666.887)" class="st11" style="font-size:14px;">2020</text>
	<text transform="matrix(1.0081 0 0 1 -205.8592 666.887)" class="st11" style="font-size:14px;">2022</text>
	<text transform="matrix(1 0 0 1 -1099.8431 17.5519)" class="st9" style="font-size:21px;">South Korea&apos;s permitting trends show glimpse of its energy future</text>
	<text transform="matrix(1 0 0 1 5.0246 21.5945)" class="st9 st10">South Korea&apos;s permitting trends show glimpse </text>
	<text transform="matrix(1 0 0 1 5.0246 43.7945)" class="st9 st10">of its energy future</text>
	<rect x="-1097.2" y="33" class="st1" width="12.2" height="12.2"/>
	<text transform="matrix(1 0 0 1 -1082.6115 43.32)" class="st11" style="font-size:14px;">coal</text>
	<rect x="-1045.2" y="33" class="st2" width="12.2" height="12.2"/>
	<text transform="matrix(1 0 0 1 -1030.6115 43.32)" class="st11" style="font-size:14px;">gas</text>
	<rect x="-995.2" y="33" class="st6" width="12.2" height="12.2"/>
	<text transform="matrix(1 0 0 1 -980.6114 43.32)" class="st11" style="font-size:14px;">solar</text>
	<rect x="-936.2" y="33" class="st7" width="12.2" height="12.2"/>
	<text transform="matrix(1 0 0 1 -921.6114 43.32)" class="st11" style="font-size:14px;">wind</text>
	<rect x="-878.2" y="33" class="st3" width="12.2" height="12.2"/>
	<text transform="matrix(1 0 0 1 -863.6114 43.32)" class="st11" style="font-size:14px;">hydro</text>
	<rect x="-816.2" y="33" class="st4" width="12.2" height="12.2"/>
	<text transform="matrix(1 0 0 1 -801.6115 43.32)" class="st11" style="font-size:14px;">nuclear</text>
	<rect x="-742.2" y="33" class="st0" width="12.2" height="12.2"/>
	<text transform="matrix(1 0 0 1 -727.6115 43.32)" class="st11" style="font-size:14px;">bioenergy</text>
	<rect x="-652.2" y="33" class="st5" width="12.2" height="12.2"/>
	<text transform="matrix(1 0 0 1 -637.6115 43.32)" class="st11" style="font-size:14px;">others</text>
	<rect x="6.7" y="54" class="st1" width="12.2" height="12.2"/>
	<text transform="matrix(1 0 0 1 21.2562 64.3626)" class="st11 st12">coal</text>
	<rect x="58.7" y="54" class="st2" width="12.2" height="12.2"/>
	<text transform="matrix(1 0 0 1 73.2562 64.3626)" class="st11 st12">gas</text>
	<rect x="108.7" y="54" class="st6" width="12.2" height="12.2"/>
	<text transform="matrix(1 0 0 1 123.2562 64.3626)" class="st11 st12">solar</text>
	<rect x="167.7" y="54" class="st7" width="12.2" height="12.2"/>
	<text transform="matrix(1 0 0 1 182.2563 64.3626)" class="st11 st12">wind</text>
	<rect x="225.7" y="54" class="st3" width="12.2" height="12.2"/>
	<text transform="matrix(1 0 0 1 240.2563 64.3626)" class="st11 st12">hydro</text>
	<rect x="287.7" y="54" class="st4" width="12.2" height="12.2"/>
	<text transform="matrix(1 0 0 1 302.2563 64.3626)" class="st11 st12">nuclear</text>
	<rect x="6.7" y="73" class="st0" width="12.2" height="12.2"/>
	<text transform="matrix(1 0 0 1 21.2563 83.3626)" class="st11 st12">bioenergy</text>
	<rect x="88.7" y="73" class="st5" width="12.2" height="12.2"/>
	<text transform="matrix(1 0 0 1 103.2563 83.3626)" class="st11 st12">others</text>
	<text transform="matrix(1.0081 0 0 1 -449.8006 129.7585)" class="st11 st12">Wind permitting increased</text>
	<text transform="matrix(1.0081 0 0 1 -449.8006 146.1091)" class="st11 st12">dramatically starting 2016,</text>
	<text transform="matrix(1.0081 0 0 1 -449.8006 162.4602)" class="st11 st12">becoming the most permitted </text>
	<text transform="matrix(1.0081 0 0 1 -449.8006 178.8108)" class="st11 st12">energy source in 2022.</text>
	<text transform="matrix(1.0081 0 0 1 -817.2796 571.4192)" class="st11 st12">Coal permitting peaked </text>
	<text transform="matrix(1.0081 0 0 1 -817.2796 587.7698)" class="st11 st12">in 2012 and has been </text>
	<text transform="matrix(1.0081 0 0 1 -817.2796 604.1204)" class="st11 st12">gradually decreasing.</text>
	<text transform="matrix(1.0081 0 0 1 -396.0398 527.136)" class="st11 st12">With coal being</text>
	<text transform="matrix(1.0081 0 0 1 -396.0398 543.4866)" class="st11 st12">phased out, gas </text>
	<text transform="matrix(1.0081 0 0 1 -396.0398 559.8372)" class="st11 st12">permitting is haing </text>
	<text transform="matrix(1.0081 0 0 1 -396.0398 576.1877)" class="st11 st12">a recent boom.</text>
	<g>
		<g>
			<path class="st13" d="M-331.3,114.7c0,0,22-36.2,59.9-33.6c30.4,2.2,46.9,23.1,52.6,33.3"/>
			<g>
				<polygon points="-216.1,111.3 -216.8,119.9 -222.9,115.6 				"/>
			</g>
		</g>
	</g>
	<g>
		<g>
			<path class="st13" d="M-677,586.8c0,0,28.6,11.4,54.9-5.7c23.1-15,26.9-33.4,27.8-42.5"/>
			<g>
				<polygon points="-590.8,540 -593.9,533.6 -598.1,539.5 				"/>
			</g>
		</g>
	</g>
	<g>
		<g>
			<path class="st13" d="M-326.3,586.2c0,0,26.4,21.8,63.6,15.9c29.6-4.7,42-22.4,46.2-31"/>
			<g>
				<polygon points="-213.6,573.4 -214.7,566.3 -220.3,570.8 				"/>
			</g>
		</g>
	</g>
	<path class="st0" d="M92.8,103.8c0,0,76.9,19.8,96.8,29.7c20,9.9,27.9,19.8,23.1,29.7c-4.8,9.9-47.7,19.8-52,29.7
		c-4.4,9.9,18.5,19.8,25.6,29.7s15.6,19.8,16.9,29.7c1.4,9.9-9,14.9-9,29.7c0.1,14.9,19.4,44.5,9.3,59.3
		c-10.2,14.9-61.6,19.8-70.4,29.7c-8.8,9.9,32,19.8,17.5,29.7c-14.5,9.9-110.5,19.8-104.8,29.7c5.6,9.9,128.5,19.8,138.5,29.7
		c10,9.9-78.3,19.8-78.4,29.7c-0.1,9.9,67.3,19.8,77.5,29.7c10.3,9.9-16.4,19.8-16,29.7c0.3,9.9,21.8,19.8,18.1,29.7
		c-3.7,9.9-33.7,19.8-40.2,29.7c-6.6,9.9,15.8,19.8,0.8,29.7c-15,9.9-83.7,19.8-90.7,29.7s48.3,29.7,48.3,29.7h-2.1
		c0,0-54.7-19.8-47.3-29.7s76.7-19.8,91.8-29.7s-8-19.8-1.6-29.7c6.4-9.9,36.9-19.8,39.9-29.7c3-9.9-20-19.8-21.9-29.7
		c-1.9-9.9,21.3-19.8,10.6-29.7c-10.8-9.9-76.4-19.8-75.1-29.7c1.3-9.9,91.9-19.8,83-29.7c-9-9.9-129.3-19.8-136.7-29.7
		c-7.5-9.9,77.4-19.8,91.9-29.7c14.5-9.9-16.4-19.8-5.2-29.7c11.2-9.9,61.9-14.9,72.5-29.7c10.6-14.9-9.2-44.5-9.3-59.3
		c-0.1-14.9,10.3-19.8,9-29.7c-1.3-9.9-9.8-19.8-16.9-29.7c-7.1-9.9-30-19.8-25.6-29.7c4.4-9.9,47.2-19.8,52-29.7
		c4.9-9.9-3.1-19.8-23.1-29.7C169.7,123.6,92.8,103.8,92.8,103.8z"/>
	<path class="st1" d="M317.1,103.8c0,0-80.8,19.8-98.1,29.7s0.8,19.8-6.2,29.7s-35.5,19.8-35.8,29.7c-0.3,9.9,26.1,19.8,33.7,29.7
		s8.9,19.8,12.4,29.7c3.5,9.9,9.6,14.9,8.5,29.7c-1.1,14.8-11.6,44.5-14.8,59.3c-3.2,14.9-2.6,19.8-4.7,29.7
		c-2.1,9.9-1.6,19.8-7.5,29.7c-6,9.9-26.7,19.8-28.1,29.7c-1.4,9.9,22.7,19.8,19.7,29.7c-3,9.9-36.3,19.8-37.7,29.7
		c-1.4,9.9,27.6,19.8,29.1,29.7c1.5,9.9-19.9,19.8-20.2,29.7c-0.3,9.9,21.9,19.8,18.2,29.7c-3.7,9.9-33.9,19.8-40.4,29.7
		c-6.4,9.9,16.7,19.8,1.6,29.7c-14.9,9.9-84.3,19.8-91.5,29.7s48.3,29.7,48.3,29.7l0,0c0,0-55.3-19.8-48.3-29.7s75.8-19.8,90.7-29.7
		s-7.4-19.8-0.8-29.7c6.6-9.9,36.5-19.8,40.2-29.7c3.7-9.9-17.8-19.8-18.1-29.7c-0.3-9.9,26.3-19.8,16-29.7
		c-10.3-9.9-77.7-19.8-77.5-29.7c0.2-9.9,88.5-19.8,78.4-29.7c-10-9.9-132.9-19.8-138.5-29.7c-5.6-9.9,90.3-19.8,104.8-29.7
		c14.5-9.9-26.3-19.8-17.5-29.7s60.2-14.9,70.4-29.7c10.2-14.9-9.2-44.5-9.3-59.3c-0.1-14.9,10.3-19.8,9-29.7
		c-1.3-9.9-9.8-19.8-16.9-29.7s-30-19.8-25.6-29.7c4.4-9.9,47.2-19.8,52-29.7s-3.1-19.8-23.1-29.7c-20-9.9-96.8-29.7-96.8-29.7
		H317.1z"/>
	<path class="st2" d="M335.2,103.8c0,0-79.6,19.8-100,29.7s-16.1,19.8-22.4,29.7c-6.3,9.9-15.1,19.8-15.4,29.7
		c-0.3,9.9,9.1,19.8,13.4,29.7c4.3,9.9,8.9,19.8,12.4,29.7c3.5,9.9,9.6,14.9,8.5,29.7c-1.1,14.8-24.5,44.5-14.8,59.3
		c9.7,14.9,64.8,19.8,72.8,29.7c7.9,9.9-31.1,19.8-25.2,29.7c5.8,9.9,65.3,19.8,60.1,29.7c-5.1,9.9-70.4,19.8-90.8,29.7
		c-20.3,9.9-23.9,19.8-31.1,29.7c-7.1,9.9-6.6,19.8-11.7,29.7c-5.1,9.9-19.1,19.8-18.7,29.7c0.3,9.9,20.8,19.8,20.9,29.7
		c0.1,9.9-17.1,19.8-20.2,29.7c-3.1,9.9,1.7,19.8,1.4,29.7c-0.3,9.9,1.5,19.8-2.9,29.7c-4.4,9.9-23.5,29.7-23.5,29.7h-44.4
		c0,0-55.5-19.8-48.3-29.7s76.5-19.8,91.5-29.7c14.9-9.9-8.1-19.8-1.6-29.7c6.4-9.9,36.7-19.8,40.4-29.7
		c3.7-9.9-18.6-19.8-18.2-29.7c0.3-9.9,21.7-19.8,20.2-29.7c-1.5-9.9-30.6-19.8-29.1-29.7c1.4-9.9,34.8-19.8,37.7-29.7
		c3-9.9-21.1-19.8-19.7-29.7c1.4-9.9,22.1-19.8,28.1-29.7c6-9.9,5.5-19.8,7.5-29.7s1.4-14.9,4.7-29.7c3.2-14.9,13.8-44.5,14.8-59.3
		c1-14.8-5-19.8-8.5-29.7c-3.5-9.9-4.7-19.8-12.4-29.7s-34.1-19.8-33.7-29.7c0.3-9.9,28.8-19.8,35.8-29.7c7-9.9-11.2-19.8,6.2-29.7
		c17.3-9.9,98.1-29.7,98.1-29.7H335.2z"/>
	<path class="st3" d="M335.2,103.8c0,0-79.6,19.8-100,29.7s-22.6,19.8-22.4,29.7c0.2,9.9,23.9,19.8,23.5,29.7
		c-0.3,9.9-23.3,19.8-25.5,29.7s8.7,19.8,12.3,29.7s10.6,14.9,9.5,29.7c-1,14.9-25.2,44.5-15.7,59.3c9.5,14.9,64.8,19.8,72.8,29.7
		c7.9,9.9-31.1,19.8-25.4,29.7c5.8,9.9,65.3,19.8,60.1,29.7c-5.1,9.9-70.5,19.8-90.8,29.7c-20.3,9.9-23.9,19.8-31,29.7
		c-7.1,9.9-6.7,19.8-11.7,29.7c-5.1,9.9-19,19.8-18.6,29.7c0.3,9.9,20.7,19.8,20.8,29.7c0.1,9.9-17.1,19.8-20.2,29.7
		c-3.1,9.9,1.7,19.8,1.4,29.7c-0.3,9.9-3.4,19.8-2.9,29.7c0.5,9.9,5.8,29.7,5.8,29.7h-29.2c0,0,19.1-19.8,23.5-29.7
		c4.4-9.9,2.6-19.8,2.9-29.7s-4.6-19.8-1.4-29.7c3.1-9.9,20.3-19.8,20.2-29.7c-0.1-9.9-20.6-19.8-20.9-29.7
		c-0.3-9.9,13.6-19.8,18.7-29.7c5.1-9.9,4.5-19.8,11.7-29.7c7.1-9.9,10.8-19.8,31.1-29.7c20.3-9.9,85.6-19.8,90.8-29.7
		c5.1-9.9-54.3-19.8-60.1-29.7c-5.8-9.9,33.2-19.8,25.2-29.7c-7.9-9.9-63.1-14.9-72.8-29.7c-9.7-14.9,13.8-44.5,14.8-59.3
		c1-14.8-5-19.8-8.5-29.7c-3.5-9.9-8.2-19.8-12.4-29.7c-4.3-9.9-13.7-19.8-13.4-29.7c0.3-9.9,9.1-19.8,15.4-29.7s2.1-19.8,22.4-29.7
		C255.6,123.6,335.2,103.8,335.2,103.8z"/>
	<path class="st4" d="M335.2,103.8c0,0-79.6,19.8-100,29.7s-28,19.8-22.4,29.7c5.6,9.9,50.9,19.8,56,29.7
		c5.1,9.9-17.9,19.8-25.5,29.7s-18.4,19.8-20.2,29.7c-1.8,9.9,10.6,14.9,9.5,29.7c-1,14.9-25.2,44.5-15.7,59.3
		c9.5,14.9,64.8,19.8,72.8,29.7c7.9,9.9-38.7,19.8-25.4,29.7c13.4,9.9,110.7,19.8,105.7,29.7c-5.1,9.9-123.6,19.8-136.2,29.7
		c-12.7,9.9,67.1,19.8,60,29.7c-7.1,9.9-90.1,19.8-102.7,29.7c-12.6,9.9,26.5,19.8,26.9,29.7c0.3,9.9-17.2,19.8-24.7,29.7
		c-7.5,9.9-24.6,19.8-20.2,29.7c4.5,9.9,39.6,19.8,47,29.7s4.3,19.8-2.9,29.7c-7.1,9.9-39.7,29.7-39.7,29.7l0,0
		c0,0-5.3-19.8-5.8-29.7s2.6-19.8,2.9-29.7s-4.6-19.8-1.4-29.7c3.1-9.9,20.3-19.8,20.2-29.7c-0.1-9.9-20.4-19.8-20.8-29.7
		c-0.3-9.9,13.6-19.8,18.6-29.7c5.1-9.9,4.7-19.8,11.7-29.7c7.1-9.9,10.7-19.8,31-29.7c20.3-9.9,85.6-19.8,90.8-29.7
		c5.1-9.9-54.4-19.8-60.1-29.7c-5.8-9.9,33.3-19.8,25.4-29.7s-63.2-14.9-72.8-29.7c-9.5-14.9,14.7-44.5,15.7-59.3
		c1-14.9-5.9-19.8-9.5-29.7c-3.6-9.9-14.5-19.8-12.3-29.7s25.2-19.8,25.5-29.7c0.3-9.9-23.4-19.8-23.5-29.7
		c-0.2-9.9,2.1-19.8,22.4-29.7C255.7,123.6,335.2,103.8,335.2,103.8z"/>
	<path class="st5" d="M335.2,103.8c0,0-76.4,19.8-96.1,29.7s-27.2,19.8-22.2,29.7c5,9.9,47.7,19.8,52,29.7
		c4.4,9.9-18,19.8-25.6,29.7s-18.3,19.8-20,29.7c-1.7,9.9,9.1,14.9,9.6,29.7c0.5,14.8-17.3,44.5-6.7,59.3
		c10.5,14.9,59.2,19.8,69.9,29.7c10.7,9.9-18.4,19.8-5.6,29.7c12.8,9.9,91.3,19.8,81.9,29.7c-9.4,9.9-126.8,19.8-138.2,29.7
		c-11.4,9.9,76.4,19.8,69.9,29.7c-6.5,9.9-95,19.8-108.9,29.7c-13.9,9.9,25,19.8,25.2,29.7c0.3,9.9-17.1,19.8-23.5,29.7
		c-6.4,9.9-20.2,19.8-14.7,29.7c5.6,9.9,40.5,19.8,47.9,29.7s4.5,19.8-3.5,29.7s-44.1,29.7-44.1,29.7h-5.1c0,0,32.6-19.8,39.7-29.7
		c7.1-9.9,10.2-19.8,2.9-29.7c-7.3-9.9-42.5-19.8-47-29.7c-4.5-9.9,12.7-19.8,20.2-29.7c7.5-9.9,25.1-19.8,24.7-29.7
		c-0.3-9.9-39.5-19.8-26.9-29.7c12.6-9.9,95.6-19.8,102.7-29.7c7.1-9.9-72.7-19.8-60-29.7c12.7-9.9,131.2-19.8,136.2-29.7
		c5.1-9.9-92.2-19.8-105.7-29.7c-13.4-9.9,33.3-19.8,25.4-29.7c-7.9-9.9-63.2-14.9-72.8-29.7c-9.5-14.9,14.7-44.5,15.7-59.3
		c1-14.9-11.2-19.8-9.5-29.7c1.7-9.9,12.5-19.8,20.2-29.7s30.6-19.8,25.5-29.7s-50.4-19.8-56-29.7c-5.6-9.9,2.1-19.8,22.4-29.7
		C255.6,123.6,335.2,103.8,335.2,103.8z"/>
	<path class="st6" d="M335.2,103.8c0,0-76.4,19.8-96.1,29.7s-27.2,19.8-22.2,29.7c5,9.9,47.7,19.8,52,29.7
		c4.4,9.9-18.1,19.8-25.6,29.7s-18.2,19.8-19.7,29.7c-1.6,9.9,9.7,14.9,10.1,29.7c0.4,14.8-18,44.5-7.5,59.3
		c10.4,14.9,59.2,19.8,70.1,29.7s-18,19.8-4.7,29.7c13.2,9.9,93.4,19.8,84.3,29.7c-9.1,9.9-127.2,19.8-138.9,29.7
		c-11.7,9.9,75.4,19.8,68.6,29.7c-6.7,9.9-96.7,19.8-109.2,29.7c-12.5,9.9,31.7,19.8,34.4,29.7c2.6,9.9-22.2,19.8-18.6,29.7
		c3.6,9.9,34.5,19.8,40.2,29.7c5.7,9.9-2.7,19.8-6.2,29.7c-3.4,9.9-5.5,19.8-14.1,29.7c-8.6,9.9-37.8,29.7-37.8,29.7h-11.7
		c0,0,36.2-19.8,44.1-29.7c8-9.9,10.9-19.8,3.5-29.7s-42.4-19.8-47.9-29.7c-5.6-9.9,8.3-19.8,14.7-29.7c6.4-9.9,23.8-19.8,23.5-29.7
		c-0.3-9.9-39.2-19.8-25.2-29.7c13.9-9.9,102.4-19.8,108.9-29.7c6.5-9.9-81.3-19.8-69.9-29.7c11.4-9.9,128.8-19.8,138.2-29.7
		c9.4-9.9-69.3-19.8-81.9-29.7c-12.8-9.9,16.3-19.8,5.6-29.7c-10.7-9.9-59.4-14.9-69.9-29.7c-10.5-14.9,7.2-44.5,6.7-59.3
		c-0.5-14.8-11.3-19.8-9.6-29.7c1.7-9.9,12.4-19.8,20-29.7c7.6-9.9,30-19.8,25.6-29.7c-4.4-9.9-47-19.8-52-29.7s2.5-19.8,22.2-29.7
		C258.8,123.6,335.2,103.8,335.2,103.8z"/>
	<path class="st7" d="M336.8,103.8c0,0-76.9,19.8-96.8,29.7s-27.9,19.8-23.1,29.7s47.7,19.8,52,29.7c4.4,9.9-18.5,19.8-25.6,29.7
		c-7.1,9.9-15.6,19.8-16.9,29.7c-1.3,9.9,9,14.9,9,29.7c-0.1,14.9-19.8,44.5-9.3,59.3c10.6,14.9,61.2,19.8,72.5,29.7
		s-19.6,19.8-5.2,29.7c14.5,9.9,99.4,19.8,91.9,29.7c-7.5,9.9-127.7,19.8-136.7,29.7c-9,9.9,81.7,19.8,83,29.7
		c1.3,9.9-64.3,19.8-75.1,29.7c-10.8,9.9,12.5,19.8,10.6,29.7c-1.9,9.9-24.9,19.8-21.9,29.7c3,9.9,33.5,19.8,39.9,29.7
		c6.4,9.9-16.7,19.8-1.6,29.7s84.4,19.8,91.8,29.7c7.4,9.9-47.3,29.7-47.3,29.7H194.2c0,0,29.1-19.8,37.8-29.7s10.8-19.8,14.1-29.7
		s11.8-19.8,6.2-29.7c-5.7-9.9-36.5-19.8-40.2-29.7c-3.6-9.9,21.3-19.8,18.6-29.7c-2.6-9.9-46.8-19.8-34.4-29.7
		c12.5-9.9,102.4-19.8,109.2-29.7c6.8-9.9-80.3-19.8-68.6-29.7c11.7-9.9,129.8-19.8,138.9-29.7c9.1-9.9-71-19.8-84.3-29.7
		c-13.2-9.9,15.6-19.8,4.7-29.7s-59.7-14.9-70.1-29.7c-10.4-14.9,8-44.5,7.5-59.3c-0.4-14.8-11.8-19.8-10.1-29.7
		c1.6-9.9,12.2-19.8,19.7-29.7s30-19.8,25.6-29.7c-4.4-9.9-47-19.8-52-29.7s2.5-19.8,22.2-29.7c19.7-9.9,96.2-29.7,96.2-29.7H336.8z
		"/>
	<path class="st8" d="M38.4,103.8V697"/>
	<text transform="matrix(1 0 0 1 4.9878 117.4885)" class="st11 st12">2002</text>
	<text transform="matrix(1 0 0 1 4.9878 170.717)" class="st11 st12">2004</text>
	<text transform="matrix(1 0 0 1 4.9878 230.0393)" class="st11 st12">2006</text>
	<text transform="matrix(1 0 0 1 4.9878 289.3615)" class="st11 st12">2008</text>
	<text transform="matrix(1 0 0 1 4.9878 348.6838)" class="st11 st12">2010</text>
	<text transform="matrix(1 0 0 1 4.9878 408.0061)" class="st11 st12">2012</text>
	<text transform="matrix(1 0 0 1 4.9878 464.4006)" class="st11 st12">2014</text>
	<text transform="matrix(1 0 0 1 4.9878 524.4553)" class="st11 st12">2016</text>
	<text transform="matrix(1 0 0 1 4.9878 583.7776)" class="st11 st12">2018</text>
	<text transform="matrix(1 0 0 1 4.9878 639.4397)" class="st11 st12">2020</text>
	<text transform="matrix(1 0 0 1 4.9878 689.2444)" class="st11 st12">2022</text>
	<text transform="matrix(1.0081 0 0 1 -1102.864 697.2356)" class="st14 st11 st12">Source: Korea Electricity Regulatory Commission | Chart by June Kim</text>
	<text transform="matrix(1 0 0 1 4.539 724.3898)" class="st14 st11 st15">Source: Korea Electricity Regulatory Commission | Chart by June Kim</text>
</g>
<g id="ai2html-settings">
	<rect x="-1598.8" y="90.5" style="fill:none;" width="400" height="418"/>
	
		<text id="ai2html-settings_00000002378982943150048250000009820435335189615780_" transform="matrix(1 0 0 1 -1598.8176 101.1805)"><tspan x="0" y="0" style="font-family:'MyriadPro-Regular'; font-size:15px;">ai2html-settings</tspan><tspan x="0" y="19" style="font-family:'MyriadPro-Regular'; font-size:15px;">settings_version: 0.111.0</tspan><tspan x="0" y="38" style="font-family:'MyriadPro-Regular'; font-size:15px;">image_format: auto</tspan><tspan x="0" y="57" style="font-family:'MyriadPro-Regular'; font-size:15px;">responsiveness: fixed</tspan><tspan x="0" y="76" style="font-family:'MyriadPro-Regular'; font-size:15px;">output: one-file</tspan><tspan x="0" y="95" style="font-family:'MyriadPro-Regular'; font-size:15px;">html_output_path: /ai2html-output/</tspan><tspan x="0" y="114" style="font-family:'MyriadPro-Regular'; font-size:15px;">html_output_extension: .html</tspan><tspan x="0" y="133" style="font-family:'MyriadPro-Regular'; font-size:15px;">image_output_path: </tspan><tspan x="0" y="152" style="font-family:'MyriadPro-Regular'; font-size:15px;">local_preview_template: </tspan><tspan x="0" y="171" style="font-family:'MyriadPro-Regular'; font-size:15px;">png_number_of_colors: 128</tspan><tspan x="0" y="190" style="font-family:'MyriadPro-Regular'; font-size:15px;">jpg_quality: 60</tspan><tspan x="0" y="209" style="font-family:'MyriadPro-Regular'; font-size:15px;">headline: </tspan><tspan x="0" y="228" style="font-family:'MyriadPro-Regular'; font-size:15px;">leadin: </tspan><tspan x="0" y="247" style="font-family:'MyriadPro-Regular'; font-size:15px;">notes: </tspan><tspan x="0" y="266" style="font-family:'MyriadPro-Regular'; font-size:15px;">sources: </tspan><tspan x="0" y="285" style="font-family:'MyriadPro-Regular'; font-size:15px;">credit: </tspan></text>
</g>
</svg>
